<svg xmlns="http://www.w3.org/2000/svg" width="984" height="1060" viewBox="0 0 984 1060" preserveAspectRatio="xMidYMid meet">
<g transform="translate(0.000000,1060.000000) scale(0.100000,-0.100000)"
fill="#ffffff" stroke="none">
<path d="M3025 10583 c-425 -55 -827 -336 -1008 -706 -33 -66 -108 -275 -274
-762 -104 -306 -323 -955 -343 -1015 -10 -30 -61 -179 -113 -330 -280 -814
-346 -1023 -359 -1128 -45 -388 193 -751 577 -877 168 -55 135 -54 1493 -56
691 -1 1289 -5 1327 -9 63 -6 55 -7 -70 -10 -77 -1 -151 -3 -165 -5 -14 -1
-108 -5 -210 -9 -702 -24 -1875 -149 -2645 -281 -458 -78 -1188 -223 -1217
-242 -5 -2 -8 -434 -8 -959 0 -771 2 -954 13 -954 7 0 80 13 162 30 445 88
1092 196 1527 255 468 64 598 79 598 70 0 -4 -11 -44 -25 -89 -83 -274 -110
-458 -110 -766 0 -295 16 -435 81 -689 168 -664 586 -1229 1194 -1616 151 -96
443 -236 600 -288 749 -249 1584 -165 2256 228 241 141 410 270 595 455 207
206 356 408 487 660 204 391 295 771 296 1230 0 290 -33 526 -109 781 -14 46
-25 85 -25 89 0 4 12 5 28 3 744 -90 1424 -196 2034 -318 97 -19 182 -35 188
-35 7 0 10 297 10 958 l0 958 -277 53 c-837 159 -1619 273 -2513 366 -80 8
-162 15 -184 15 -28 0 -37 4 -33 14 3 7 99 168 214 357 115 189 257 423 315
519 58 96 189 315 293 485 103 171 220 364 260 430 236 393 907 1500 1175
1940 100 165 185 306 187 313 4 10 -207 12 -1048 10 l-1054 -3 -173 -295
c-187 -319 -194 -331 -517 -895 -119 -209 -221 -384 -226 -389 -5 -6 -9 175
-9 435 l0 445 -387 1 c-214 1 -391 2 -395 2 -4 1 -3 13 3 29 21 52 321 938
426 1257 58 176 108 326 110 333 4 9 -291 12 -1458 11 -805 -1 -1477 -4 -1494
-6z m2515 -326 c0 -6 -98 -305 -217 -662 l-218 -650 -594 -3 c-563 -2 -593 -1
-586 15 6 16 58 210 88 330 6 24 8 46 5 49 -4 3 -118 8 -255 11 -205 5 -250 4
-259 -8 -6 -8 -27 -61 -47 -119 -19 -58 -63 -184 -97 -280 -86 -244 -146 -417
-187 -540 -19 -58 -76 -222 -125 -365 -232 -668 -377 -1099 -372 -1104 3 -3
131 -6 285 -5 231 0 282 3 293 14 22 23 299 847 290 862 -3 5 -71 8 -151 8
-134 0 -145 1 -140 18 3 9 66 195 140 412 l134 395 44 12 c67 18 2302 18 2317
0 7 -8 13 -189 17 -537 3 -289 7 -572 10 -630 3 -58 5 -205 6 -327 1 -123 4
-223 8 -223 3 0 48 73 100 163 51 89 110 191 131 227 20 36 64 112 97 170 33
58 122 213 198 345 76 132 204 355 285 495 80 140 215 374 300 520 84 146 183
317 220 380 l66 115 678 1 c587 1 676 -1 671 -14 -6 -16 -210 -356 -830 -1382
-642 -1062 -1089 -1802 -1254 -2079 l-146 -244 -84 6 c-46 4 -86 9 -89 12 -3
3 70 130 163 283 92 152 260 430 373 617 113 187 295 489 405 670 110 182 316
521 457 755 141 234 355 586 474 784 229 379 261 435 249 438 -19 3 -940 4
-954 1 -9 -3 -29 -28 -46 -56 -129 -219 -244 -418 -493 -852 -158 -275 -341
-594 -407 -710 -66 -115 -196 -343 -288 -505 -93 -162 -215 -376 -273 -475
-58 -99 -115 -197 -127 -218 l-22 -39 -6 34 c-4 18 -9 233 -12 478 -3 245 -7
528 -10 630 -3 102 -8 370 -11 595 -4 229 -11 414 -16 420 -6 7 -369 11 -1041
13 l-1033 2 -38 -117 c-22 -65 -45 -136 -52 -158 -6 -22 -31 -91 -53 -154 -23
-62 -41 -118 -41 -122 0 -5 65 -9 144 -9 l143 0 -5 -52 c-4 -40 -312 -965
-367 -1100 -5 -12 -19 -18 -44 -19 -161 -5 -776 -7 -813 -3 -46 6 -46 6 -50
47 -5 44 -12 21 264 822 117 341 290 848 487 1424 66 195 129 363 138 374 45
49 55 50 428 52 193 1 359 -1 370 -5 11 -5 30 -18 43 -29 26 -25 27 -16 -34
-216 -23 -77 -39 -143 -35 -148 4 -4 196 -6 427 -5 l419 3 67 200 c37 110 113
333 168 495 55 162 100 303 100 313 0 16 -57 17 -1067 17 -1140 0 -1158 -1
-1302 -50 -136 -46 -271 -129 -356 -222 -103 -110 -135 -174 -226 -442 -81
-242 -366 -1079 -454 -1336 -504 -1472 -498 -1455 -493 -1524 7 -80 45 -154
119 -232 67 -69 130 -107 210 -127 48 -12 920 -15 2305 -7 l62 0 55 163 c30
89 87 250 125 357 39 107 113 314 165 460 173 479 221 609 225 606 3 -4 44
-632 72 -1121 12 -202 34 -536 50 -750 5 -71 10 -145 10 -162 l0 -33 -85 0
-85 0 0 31 c0 113 -66 1249 -73 1256 -6 5 -122 -312 -267 -729 -38 -108 -74
-206 -80 -218 l-11 -21 -1232 3 c-1208 3 -1233 4 -1302 24 -233 68 -384 226
-421 438 -8 46 -11 101 -8 130 6 48 229 724 454 1376 56 162 142 412 190 555
411 1211 417 1226 525 1358 98 118 281 250 422 303 56 21 152 46 223 57 14 2
575 5 1248 6 974 1 1222 -2 1222 -12z m-623 -4970 c3 -3 2 -50 -2 -104 l-7
-98 -169 3 -169 4 0 -136 0 -136 115 0 c87 0 124 4 147 16 l31 16 -6 -98 c-9
-150 2 -139 -135 -139 -174 1 -164 10 -161 -142 1 -71 4 -136 7 -145 4 -16 21
-18 183 -15 l179 2 0 -66 c0 -36 -5 -80 -11 -98 l-11 -31 -221 -1 c-122 0
-256 -3 -297 -5 l-75 -5 0 590 0 591 200 3 c241 4 394 1 402 -6z m599 -3 c161
-4 297 -9 302 -13 13 -8 31 -145 25 -188 -4 -27 -8 -31 -22 -23 -10 5 -66 12
-125 15 l-107 7 3 -486 3 -487 -128 3 -128 3 1 474 c0 260 3 477 5 482 8 12
-99 22 -176 17 l-69 -5 0 47 c0 26 -3 75 -7 110 l-6 62 69 -6 c38 -3 200 -8
360 -12z m-1448 -56 c-28 -35 -63 -102 -102 -193 -32 -77 -76 -179 -96 -227
l-38 -88 53 -117 c109 -243 192 -409 224 -446 19 -21 30 -41 26 -45 -13 -13
-249 -6 -280 9 -33 15 -73 90 -192 354 -35 77 -63 133 -64 125 0 -8 -3 -127
-5 -265 l-4 -250 -126 -8 c-69 -5 -127 -7 -127 -5 -1 2 1 134 4 293 3 160 6
421 5 582 l-1 292 35 5 c19 3 78 8 130 12 l95 6 -3 -253 -2 -254 38 90 c68
157 191 394 211 405 23 12 132 27 209 29 l52 1 -42 -52z m2217 17 c94 -8 206
-18 250 -21 l80 -7 71 -66 72 -66 2 -95 c2 -52 3 -127 3 -167 l0 -72 -52 -47
c-28 -25 -51 -51 -51 -58 0 -7 27 -38 60 -70 l60 -58 0 -178 0 -178 -73 -56
-73 -56 -235 15 c-128 8 -261 17 -294 20 l-60 6 -2 547 c-1 301 -4 564 -7 585
l-6 37 42 0 c24 0 120 -7 213 -15z m-3253 -67 l78 -73 2 -82 c1 -45 0 -84 -3
-87 -5 -5 -192 -46 -210 -46 -5 0 -9 14 -9 31 0 22 -10 41 -35 66 -34 34 -38
35 -88 30 -61 -7 -96 -40 -98 -90 -3 -89 1 -117 16 -140 19 -29 24 -31 170
-52 61 -9 118 -18 128 -21 9 -3 47 -42 82 -86 l65 -80 0 -173 0 -174 -57 -54
c-32 -30 -79 -72 -104 -94 l-46 -40 -172 -17 c-149 -16 -174 -16 -189 -4 -9 8
-47 40 -84 72 l-68 58 0 88 0 88 28 6 c15 3 56 10 92 16 36 6 73 13 83 16 14
5 17 -1 17 -39 0 -39 4 -48 33 -69 27 -20 41 -23 89 -20 52 3 61 8 92 42 34
38 35 40 32 116 -3 70 -6 80 -30 101 -32 27 -98 47 -226 68 l-95 16 -52 57
-53 57 0 181 0 180 98 96 97 95 120 12 c66 7 125 14 130 16 6 2 28 4 50 4 37
1 47 -6 117 -71z m4361 -22 c92 -12 169 -25 171 -27 3 -2 43 -41 89 -87 l84
-82 7 -333 c8 -404 15 -634 22 -664 2 -13 1 -23 -4 -23 -18 0 -247 32 -250 34
-1 2 3 15 9 29 9 20 9 48 1 114 -6 48 -14 116 -18 151 -4 45 -13 71 -30 91
-21 26 -33 30 -104 36 -59 5 -84 4 -96 -5 -12 -11 -15 -44 -14 -197 1 -102 0
-186 -2 -188 -1 -1 -56 3 -122 9 l-119 11 0 160 c0 88 1 324 2 525 l2 365 71
53 c50 36 81 52 102 52 17 0 106 -11 199 -24z m-5278 -85 l80 -68 0 -516 0
-517 -45 -5 c-25 -3 -76 -11 -113 -16 -89 -14 -98 -10 -86 36 6 20 8 48 5 63
-3 15 -6 76 -8 135 -2 104 -3 109 -29 131 -26 22 -29 23 -109 11 -59 -9 -87
-17 -97 -30 -10 -14 -13 -65 -13 -206 l0 -187 -122 -19 c-68 -11 -125 -18
-128 -17 -6 2 18 898 26 994 l6 65 78 79 77 79 164 28 c234 39 219 41 314 -40z
m6019 -26 c54 -7 99 -15 101 -17 1 -2 5 -214 9 -472 4 -259 8 -472 11 -474 7
-7 249 -42 291 -42 l41 0 7 -46 c6 -50 8 -174 2 -174 -2 0 -133 20 -292 45
-159 25 -293 45 -299 45 -7 0 -11 182 -12 523 -1 287 -5 548 -8 579 l-6 58 28
-5 c15 -3 72 -12 127 -20z m-6966 -113 l52 -35 0 -166 0 -166 -50 -65 c-46
-61 -60 -90 -42 -90 4 0 31 -23 61 -50 l54 -51 -7 -175 c-3 -97 -11 -184 -16
-194 -5 -10 -39 -44 -74 -75 l-65 -57 -223 -43 c-123 -24 -254 -51 -292 -60
-37 -9 -69 -15 -70 -13 -1 2 2 244 6 538 5 294 6 561 4 592 -5 52 -4 57 17 64
12 4 139 31 282 59 291 59 252 60 363 -13z m7797 -12 l50 -10 4 -283 c2 -155
5 -313 6 -352 2 -38 3 -127 4 -196 l1 -125 148 -27 c81 -15 155 -27 164 -27
13 0 18 -14 23 -66 7 -62 2 -130 -10 -142 -3 -3 -128 18 -278 46 -149 29 -279
52 -287 52 -13 0 -15 69 -18 548 -1 301 -5 563 -8 583 l-5 36 78 -13 c43 -8
101 -18 128 -24z m-4189 -1241 c-7 -75 -38 -125 -95 -157 -34 -20 -53 -22
-167 -21 -77 0 -143 6 -164 13 -34 12 -35 15 -40 72 -3 32 -14 78 -26 101 -14
28 -17 44 -10 46 6 2 123 5 260 6 l249 2 -7 -62z m921 48 c8 -8 -260 -236
-308 -261 -26 -15 -80 -33 -117 -41 -92 -19 -156 -3 -202 53 -46 56 -54 97
-30 161 11 29 28 64 37 78 l17 26 300 -6 c164 -4 301 -8 303 -10z m-1749 -48
c36 -19 75 -46 85 -60 27 -38 33 -100 13 -132 -20 -29 -23 -31 -221 -92 -373
-117 -690 -267 -1075 -509 -123 -77 -119 -80 -101 73 23 196 86 438 160 612
l32 77 47 5 c55 7 384 33 667 52 270 18 310 15 393 -26z m2462 16 c129 -8 313
-22 408 -30 95 -8 179 -15 186 -15 29 0 134 -301 176 -504 23 -113 47 -323 37
-332 -6 -7 -23 3 -238 134 -272 166 -498 263 -854 367 -163 47 -255 83 -287
112 -11 9 -18 30 -18 50 0 29 9 44 54 87 64 63 214 145 266 146 20 0 141 -7
270 -15z m-2046 -400 c45 -42 36 -78 -46 -182 -51 -65 -208 -295 -497 -728
-262 -393 -416 -667 -516 -920 -27 -66 -60 -147 -74 -179 l-27 -59 -55 64
c-80 93 -111 135 -167 224 -181 294 -283 571 -326 883 l-15 103 32 30 c37 35
247 178 392 267 206 126 585 295 780 346 186 50 203 56 272 103 114 79 197 95
247 48z m631 -44 c43 -19 95 -73 95 -96 0 -8 -31 -63 -68 -122 -151 -238 -216
-436 -244 -748 -9 -98 -12 -390 -13 -981 l0 -841 -50 4 c-336 28 -761 180
-1061 381 -192 130 -187 123 -192 224 -5 104 7 149 89 336 157 356 387 733
805 1317 83 116 173 244 201 286 57 85 123 148 207 198 106 63 162 74 231 42z
m764 -15 c17 -9 38 -27 47 -41 19 -29 11 -48 -54 -117 -34 -37 -58 -52 -99
-64 -30 -9 -65 -13 -78 -10 -31 8 -65 82 -65 142 0 39 5 51 35 81 l36 36 73
-6 c41 -3 88 -13 105 -21z m470 -211 c32 -8 112 -37 179 -64 283 -117 519
-255 735 -431 l69 -55 -7 -55 c-44 -387 -220 -799 -470 -1100 -84 -100 -99
-114 -112 -98 -5 7 -29 63 -53 123 -118 301 -234 509 -547 978 l-253 379 0 54
c0 30 6 67 14 82 16 30 91 104 148 146 73 55 186 70 297 41z m-881 -92 c22
-32 63 -101 92 -153 52 -95 198 -324 436 -685 69 -104 159 -246 200 -315 105
-175 243 -456 283 -577 30 -89 33 -110 28 -165 -8 -73 -6 -70 -162 -177 -295
-201 -645 -334 -1013 -385 -154 -22 -149 -22 -162 22 -27 89 -39 1153 -19
1682 9 251 40 398 123 584 30 68 133 226 146 226 5 0 27 -26 48 -57z M6293
4918 c4 -68 7 -128 7 -134 0 -7 31 -14 76 -18 l77 -7 33 32 c33 32 34 36 34
109 0 70 -2 78 -27 102 -24 22 -41 27 -117 32 l-89 7 6 -123z M6302 4418 l3
-143 88 -8 c84 -8 90 -8 113 14 22 21 24 30 24 119 0 96 0 96 -33 128 -32 31
-36 32 -115 32 l-83 0 3 -142z M7282 4938 c-22 -24 -22 -31 -20 -169 l3 -144
75 -12 c41 -6 91 -12 110 -12 l35 -1 -1 63 c-1 212 -3 221 -31 256 -25 28 -36
33 -88 38 -54 5 -62 3 -83 -19z M1784 4890 c-12 -5 -33 -24 -46 -42 -22 -31
-24 -43 -27 -175 -1 -97 1 -143 8 -143 21 0 205 31 213 36 4 3 8 68 8 145 0
135 -1 141 -25 164 -18 19 -34 25 -67 24 -24 0 -53 -4 -64 -9z M845 4750 c-16
-4 -42 -11 -57 -14 l-28 -6 0 -136 c0 -110 3 -135 13 -131 8 3 40 8 71 12 94
12 134 70 135 196 1 76 -45 103 -134 79z M885 4275 c-5 -2 -36 -9 -67 -15
l-58 -11 0 -145 c0 -165 -10 -152 104 -130 102 20 116 39 116 159 0 85 -2 93
-27 119 -25 26 -43 32 -68 23z"/>
</g>
<g transform="translate(0.000000,1060.000000) scale(0.100000,-0.100000)"
fill="#FE5A08" stroke="none">
<path d="M4274 3733 c-7 -2 -4 -18 10 -46 12 -23 23 -69 26 -101 5 -57 6 -60
40 -72 21 -7 87 -13 164 -13 114 -1 133 1 167 21 57 32 88 82 95 157 l7 62
-249 -2 c-137 -1 -254 -4 -260 -6z M5077 3717 c-9 -14 -26 -49 -37 -78 -24
-64 -16 -105 30 -161 46 -56 110 -72 202 -53 37 8 91 26 117 41 48 25 316 253
308 261 -2 2 -139 6 -303 10 l-300 6 -17 -26z M3555 3705 c-283 -19 -612 -45
-667 -52 l-47 -5 -32 -77 c-74 -174 -137 -416 -160 -612 -18 -153 -22 -150
101 -73 385 242 702 392 1075 509 198 61 201 63 221 92 20 32 14 94 -13 132
-10 14 -49 41 -85 60 -83 41 -123 44 -393 26z M6016 3663 c-115 -60 -196 -137
-196 -186 0 -20 7 -41 18 -50 32 -29 124 -65 287 -112 356 -104 582 -201 854
-367 215 -131 232 -141 238 -134 10 9 -14 219 -37 332 -42 203 -147 504 -176
504 -7 0 -91 7 -186 15 -200 17 -626 45 -678 45 -22 -1 -68 -18 -124 -47z
M4220 3307 c-19 -7 -66 -34 -103 -60 -69 -47 -86 -53 -272 -103 -195 -51 -574
-220 -780 -346 -145 -89 -355 -232 -392 -267 l-32 -30 15 -103 c56 -407 234
-807 493 -1107 l55 -64 27 59 c14 32 47 113 74 179 100 253 254 527 516 920
289 433 446 663 497 728 82 104 91 140 46 182 -31 28 -85 33 -144 12z M4857
3256 c-109 -39 -225 -134 -300 -245 -28 -42 -118 -170 -201 -286 -418 -584
-648 -961 -805 -1317 -82 -187 -94 -232 -89 -336 5 -101 0 -94 192 -224 300
-201 725 -353 1061 -381 l50 -4 0 841 c1 591 4 883 13 981 28 312 93 510 244
748 37 59 68 114 68 122 0 23 -52 77 -95 96 -47 22 -86 23 -138 5z M5545 3227
c-30 -30 -35 -42 -35 -81 0 -60 34 -134 65 -142 13 -3 48 1 78 10 41 12 65 27
99 64 65 69 73 88 54 117 -24 37 -71 56 -152 62 l-73 6 -36 -36z M6012 3025
c-48 -15 -95 -47 -165 -114 -63 -60 -77 -88 -77 -155 l0 -54 253 -379 c313
-469 429 -677 547 -978 24 -60 48 -116 53 -123 13 -16 28 -2 112 98 250 301
426 713 470 1100 l7 55 -69 55 c-216 176 -452 314 -735 431 -195 80 -294 96
-396 64z M5236 2907 c-136 -204 -194 -410 -205 -727 -20 -529 -8 -1593 19
-1682 13 -44 8 -44 162 -22 368 51 718 184 1013 385 156 107 154 104 162 177
5 55 2 76 -28 165 -40 121 -178 402 -283 577 -41 69 -131 211 -200 315 -238
361 -384 590 -436 685 -63 113 -127 210 -140 210 -5 0 -34 -38 -64 -83z"/>
</g>
<g transform="translate(0.000000,1060.000000) scale(0.100000,-0.100000)"
fill="#FFFFFF" stroke="none">
<path d="M3203 10593 c15 -2 37 -2 50 0 12 2 0 4 -28 4 -27 0 -38 -2 -22 -4z
M3433 10593 c9 -2 23 -2 30 0 6 3 -1 5 -18 5 -16 0 -22 -2 -12 -5z M3893
10593 c42 -2 112 -2 155 0 42 1 7 3 -78 3 -85 0 -120 -2 -77 -3z M4478 10593
c12 -2 32 -2 45 0 12 2 2 4 -23 4 -25 0 -35 -2 -22 -4z M5273 10593 c15 -2 39
-2 55 0 15 2 2 4 -28 4 -30 0 -43 -2 -27 -4z M3013 10583 c9 -2 23 -2 30 0 6
3 -1 5 -18 5 -16 0 -22 -2 -12 -5z M2534 10424 c-18 -14 -18 -15 4 -4 12 6 22
13 22 15 0 8 -5 6 -26 -11z M5881 10289 c-12 -39 -21 -72 -19 -75 2 -2 14 28
27 67 12 39 21 72 19 75 -2 2 -14 -28 -27 -67z M2325 10280 c-4 -6 -12 -7 -18
-4 -7 4 -9 3 -4 -1 4 -5 -3 -20 -15 -34 -13 -14 -6 -10 15 8 20 19 37 36 37
38 0 7 -9 2 -15 -7z M3070 10263 c-71 -11 -167 -36 -223 -57 -141 -53 -324
-185 -422 -303 -108 -132 -114 -147 -525 -1358 -48 -143 -134 -393 -190 -555
-225 -652 -448 -1328 -454 -1376 -3 -29 0 -84 8 -130 37 -212 188 -370 421
-438 69 -20 94 -21 1302 -24 l1232 -3 11 21 c6 12 42 110 80 218 145 417 261
734 267 729 7 -7 73 -1143 73 -1256 l0 -31 85 0 85 0 0 33 c0 17 -5 91 -10
162 -16 214 -38 548 -50 750 -28 489 -69 1117 -72 1121 -4 3 -52 -127 -225
-606 -52 -146 -126 -353 -165 -460 -38 -107 -95 -268 -125 -357 l-55 -163 -62
0 c-1385 -8 -2257 -5 -2305 7 -80 20 -143 58 -210 127 -74 78 -112 152 -119
232 -5 69 -11 52 493 1524 88 257 373 1094 454 1336 91 268 123 332 226 442
85 93 220 176 356 222 144 49 162 50 1302 50 1010 0 1067 -1 1067 -17 0 -10
-45 -151 -100 -313 -55 -162 -131 -385 -168 -495 l-67 -200 -419 -3 c-231 -1
-423 1 -427 5 -4 5 12 71 35 148 61 200 60 191 34 216 -13 11 -32 24 -43 29
-11 4 -177 6 -370 5 -373 -2 -383 -3 -428 -52 -9 -11 -72 -179 -138 -374 -197
-576 -370 -1083 -487 -1424 -276 -801 -269 -778 -264 -822 4 -41 4 -41 50 -47
37 -4 652 -2 813 3 25 1 39 7 44 19 55 135 363 1060 367 1100 l5 52 -143 0
c-79 0 -144 4 -144 9 0 4 18 60 41 122 22 63 47 132 53 154 7 22 30 93 52 158
l38 117 1033 -2 c672 -2 1035 -6 1041 -13 5 -6 12 -191 16 -420 3 -225 8 -493
11 -595 3 -102 7 -385 10 -630 3 -245 8 -460 12 -478 l6 -34 22 39 c12 21 69
119 127 218 58 99 180 313 273 475 92 162 222 390 288 505 66 116 249 435 407
710 249 434 364 633 493 852 17 28 37 53 46 56 14 3 935 2 954 -1 12 -3 -20
-59 -249 -438 -119 -198 -333 -550 -474 -784 -141 -234 -347 -573 -457 -755
-110 -181 -292 -483 -405 -670 -113 -187 -281 -465 -373 -617 -93 -153 -166
-280 -163 -283 3 -3 43 -8 89 -12 l84 -6 146 244 c165 277 612 1017 1254 2079
620 1026 824 1366 830 1382 5 13 -84 15 -671 14 l-678 -1 -66 -115 c-37 -63
-136 -234 -220 -380 -85 -146 -220 -380 -300 -520 -81 -140 -209 -363 -285
-495 -76 -132 -165 -287 -198 -345 -33 -58 -77 -134 -97 -170 -21 -36 -80
-138 -131 -227 -52 -90 -97 -163 -100 -163 -4 0 -7 100 -8 223 -1 122 -3 269
-6 327 -3 58 -7 341 -10 630 -4 348 -10 529 -17 537 -15 18 -2250 18 -2317 0
l-44 -12 -134 -395 c-74 -217 -137 -403 -140 -412 -5 -17 6 -18 140 -18 80 0
148 -3 151 -8 9 -15 -268 -839 -290 -862 -11 -11 -62 -14 -293 -14 -154 -1
-282 2 -285 5 -5 5 140 436 372 1104 49 143 106 307 125 365 41 123 101 296
187 540 34 96 78 222 97 280 20 58 41 111 47 119 9 12 54 13 259 8 137 -3 251
-8 255 -11 3 -3 1 -25 -5 -49 -30 -120 -82 -314 -88 -330 -7 -16 23 -17 586
-15 l594 3 218 650 c119 357 217 656 217 662 0 10 -248 13 -1222 12 -673 -1
-1234 -4 -1248 -6z M2195 10148 l-50 -53 53 50 c28 27 52 51 52 52 0 8 -9 -1
-55 -49z M2030 9920 c-6 -11 -8 -20 -6 -20 3 0 10 9 16 20 6 11 8 20 6 20 -3
0 -10 -9 -16 -20z M1986 9835 c-9 -26 -7 -32 5 -12 6 10 9 21 6 23 -2 3 -7 -2
-11 -11z M7139 9653 c-12 -16 -12 -16 1 -6 8 6 31 13 50 16 l35 4 -36 1 c-24
1 -41 -4 -50 -15z M7313 9663 c9 -2 23 -2 30 0 6 3 -1 5 -18 5 -16 0 -22 -2
-12 -5z M7628 9663 c18 -2 45 -2 60 0 15 2 0 4 -33 4 -33 0 -45 -2 -27 -4z
M7933 9663 c9 -2 25 -2 35 0 9 3 1 5 -18 5 -19 0 -27 -2 -17 -5z M8368 9663
c39 -2 105 -2 145 0 39 1 7 3 -73 3 -80 0 -112 -2 -72 -3z M8923 9663 c15 -2
39 -2 55 0 15 2 2 4 -28 4 -30 0 -43 -2 -27 -4z M9113 9663 c15 -2 39 -2 55 0
15 2 2 4 -28 4 -30 0 -43 -2 -27 -4z M9220 9600 c-6 -11 -8 -20 -6 -20 3 0 10
9 16 20 6 11 8 20 6 20 -3 0 -10 -9 -16 -20z M5616 9505 c-3 -9 -6 -22 -5 -28
0 -7 5 -1 10 12 5 13 8 26 5 28 -2 2 -6 -3 -10 -12z M7040 9490 c-6 -11 -8
-20 -6 -20 3 0 10 9 16 20 6 11 8 20 6 20 -3 0 -10 -9 -16 -20z M9110 9420
c-6 -11 -8 -20 -6 -20 3 0 10 9 16 20 6 11 8 20 6 20 -3 0 -10 -9 -16 -20z
M5581 9403 c-1 -6 -4 -20 -7 -30 -5 -17 -5 -17 6 0 6 10 9 23 6 30 -3 9 -5 9
-5 0z M6970 9370 c-6 -11 -8 -20 -6 -20 3 0 10 9 16 20 6 11 8 20 6 20 -3 0
-10 -9 -16 -20z M6900 9250 c-6 -11 -8 -20 -6 -20 3 0 10 9 16 20 6 11 8 20 6
20 -3 0 -10 -9 -16 -20z M6870 9200 c-6 -11 -8 -20 -6 -20 3 0 10 9 16 20 6
11 8 20 6 20 -3 0 -10 -9 -16 -20z M8940 9140 c-6 -11 -8 -20 -6 -20 3 0 10 9
16 20 6 11 8 20 6 20 -3 0 -10 -9 -16 -20z M6830 9130 c-6 -11 -8 -20 -6 -20
3 0 10 9 16 20 6 11 8 20 6 20 -3 0 -10 -9 -16 -20z M1696 9005 c-3 -9 -6 -22
-5 -28 0 -7 5 -1 10 12 5 13 8 26 5 28 -2 2 -6 -3 -10 -12z M5437 8981 c-4
-17 -3 -21 5 -13 5 5 8 16 6 23 -3 8 -7 3 -11 -10z M6735 8970 c-9 -16 -13
-30 -11 -30 3 0 12 14 21 30 9 17 13 30 11 30 -3 0 -12 -13 -21 -30z M5528
8973 c23 -2 61 -2 85 0 23 2 4 4 -43 4 -47 0 -66 -2 -42 -4z M6173 8973 c9 -2
25 -2 35 0 9 3 1 5 -18 5 -19 0 -27 -2 -17 -5z M5823 8953 c9 -2 23 -2 30 0 6
3 -1 5 -18 5 -16 0 -22 -2 -12 -5z M6113 8953 c9 -2 25 -2 35 0 9 3 1 5 -18 5
-19 0 -27 -2 -17 -5z M6220 8515 c0 -247 2 -446 5 -443 7 7 6 880 0 887 -3 2
-5 -197 -5 -444z M8800 8910 c-6 -11 -8 -20 -6 -20 3 0 10 9 16 20 6 11 8 20
6 20 -3 0 -10 -9 -16 -20z M8720 8780 c-6 -11 -8 -20 -6 -20 3 0 10 9 16 20 6
11 8 20 6 20 -3 0 -10 -9 -16 -20z M6610 8750 c-6 -11 -8 -20 -6 -20 3 0 10 9
16 20 6 11 8 20 6 20 -3 0 -10 -9 -16 -20z M1581 8663 c-1 -6 -4 -20 -7 -30
-5 -17 -5 -17 6 0 6 10 9 23 6 30 -3 9 -5 9 -5 0z M6540 8630 c-6 -11 -8 -20
-6 -20 3 0 10 9 16 20 6 11 8 20 6 20 -3 0 -10 -9 -16 -20z M8600 8580 c-6
-11 -8 -20 -6 -20 3 0 10 9 16 20 6 11 8 20 6 20 -3 0 -10 -9 -16 -20z M6498
8562 c4 -11 1 -13 -8 -7 -9 5 -11 4 -6 -3 10 -16 14 -15 25 6 7 14 6 19 -4 19
-7 0 -11 -7 -7 -15z M8570 8530 c-6 -11 -8 -20 -6 -20 3 0 10 9 16 20 6 11 8
20 6 20 -3 0 -10 -9 -16 -20z M8480 8380 c-6 -11 -8 -20 -6 -20 3 0 10 9 16
20 6 11 8 20 6 20 -3 0 -10 -9 -16 -20z M6380 8350 c-6 -11 -8 -20 -6 -20 3 0
10 9 16 20 6 11 8 20 6 20 -3 0 -10 -9 -16 -20z M1431 8219 c-11 -34 -19 -64
-17 -66 2 -2 13 24 25 58 11 34 19 64 17 66 -2 2 -13 -24 -25 -58z M1381 8069
c-6 -18 -9 -34 -7 -36 2 -2 9 10 15 28 6 18 9 34 7 36 -2 2 -9 -10 -15 -28z
M8290 8070 c-6 -11 -8 -20 -6 -20 3 0 10 9 16 20 6 11 8 20 6 20 -3 0 -10 -9
-16 -20z M8230 7970 c-6 -11 -8 -20 -6 -20 3 0 10 9 16 20 6 11 8 20 6 20 -3
0 -10 -9 -16 -20z M1306 7855 c-3 -9 -6 -22 -5 -28 0 -7 5 -1 10 12 5 13 8 26
5 28 -2 2 -6 -3 -10 -12z M1281 7783 c-1 -6 -4 -20 -7 -30 -5 -17 -5 -17 6 0
6 10 9 23 6 30 -3 9 -5 9 -5 0z M8080 7720 c-6 -11 -8 -20 -6 -20 3 0 10 9 16
20 6 11 8 20 6 20 -3 0 -10 -9 -16 -20z M8050 7670 c-6 -11 -8 -20 -6 -20 3 0
10 9 16 20 6 11 8 20 6 20 -3 0 -10 -9 -16 -20z M7940 7490 c-6 -11 -8 -20 -6
-20 3 0 10 9 16 20 6 11 8 20 6 20 -3 0 -10 -9 -16 -20z M7790 7240 c-6 -11
-8 -20 -6 -20 3 0 10 9 16 20 6 11 8 20 6 20 -3 0 -10 -9 -16 -20z M7760 7190
c-6 -11 -8 -20 -6 -20 3 0 10 9 16 20 6 11 8 20 6 20 -3 0 -10 -9 -16 -20z
M1020 7065 c0 -5 5 -17 10 -25 5 -8 10 -10 10 -5 0 6 -5 17 -10 25 -5 8 -10
11 -10 5z M1006 6965 c-9 -26 -7 -32 5 -12 6 10 9 21 6 23 -2 3 -7 -2 -11 -11z
M7611 6941 c-9 -16 -8 -19 6 -17 20 3 28 21 14 30 -5 4 -15 -2 -20 -13z M941
6830 c-7 -23 -10 -45 -7 -48 3 -3 6 3 6 14 0 14 2 16 9 6 12 -19 22 23 12 50
-6 17 -9 13 -20 -22z M7530 6810 c-6 -11 -8 -20 -6 -20 3 0 10 9 16 20 6 11 8
20 6 20 -3 0 -10 -9 -16 -20z M7470 6710 c-6 -11 -8 -20 -6 -20 3 0 10 9 16
20 6 11 8 20 6 20 -3 0 -10 -9 -16 -20z M922 6640 c0 -14 2 -19 5 -12 2 6 2
18 0 25 -3 6 -5 1 -5 -13z M904 6550 c0 -58 1 -81 3 -52 2 28 2 76 0 105 -2
28 -3 5 -3 -53z M7420 6630 c-6 -11 -8 -20 -6 -20 3 0 10 9 16 20 6 11 8 20 6
20 -3 0 -10 -9 -16 -20z M7390 6580 c-6 -11 -8 -20 -6 -20 3 0 10 9 16 20 6
11 8 20 6 20 -3 0 -10 -9 -16 -20z M7335 6490 c-9 -16 -13 -30 -11 -30 3 0 12
14 21 30 9 17 13 30 11 30 -3 0 -12 -13 -21 -30z M922 6450 c0 -14 2 -19 5
-12 2 6 2 18 0 25 -3 6 -5 1 -5 -13z M7240 6330 c-6 -11 -8 -20 -6 -20 3 0 10
9 16 20 6 11 8 20 6 20 -3 0 -10 -9 -16 -20z M7180 6230 c-6 -11 -8 -20 -6
-20 3 0 10 9 16 20 6 11 8 20 6 20 -3 0 -10 -9 -16 -20z M7040 6000 c-6 -11
-8 -20 -6 -20 3 0 10 9 16 20 6 11 8 20 6 20 -3 0 -10 -9 -16 -20z M1150 5975
c19 -19 36 -35 39 -35 3 0 -10 16 -29 35 -19 19 -36 35 -39 35 -3 0 10 -16 29
-35z M7010 5950 c-6 -11 -8 -20 -6 -20 3 0 10 9 16 20 6 11 8 20 6 20 -3 0
-10 -9 -16 -20z M1225 5910 c10 -11 20 -20 23 -20 3 0 -3 9 -13 20 -10 11 -20
20 -23 20 -3 0 3 -9 13 -20z M6980 5900 c-6 -11 -8 -20 -6 -20 3 0 10 9 16 20
6 11 8 20 6 20 -3 0 -10 -9 -16 -20z M1300 5856 c0 -3 9 -10 20 -16 11 -6 20
-8 20 -6 0 3 -9 10 -20 16 -11 6 -20 8 -20 6z M6930 5820 c-6 -11 -8 -20 -6
-20 3 0 10 9 16 20 6 11 8 20 6 20 -3 0 -10 -9 -16 -20z M1440 5780 c8 -5 20
-10 25 -10 6 0 3 5 -5 10 -8 5 -19 10 -25 10 -5 0 -3 -5 5 -10z M6900 5770
c-6 -11 -8 -20 -6 -20 3 0 10 9 16 20 6 11 8 20 6 20 -3 0 -10 -9 -16 -20z
M6870 5720 c-6 -11 -8 -20 -6 -20 3 0 10 9 16 20 6 11 8 20 6 20 -3 0 -10 -9
-16 -20z M1628 5723 c6 -2 18 -2 25 0 6 3 1 5 -13 5 -14 0 -19 -2 -12 -5z
M1688 5713 c6 -2 18 -2 25 0 6 3 1 5 -13 5 -14 0 -19 -2 -12 -5z M2318 5703
c314 -2 830 -2 1145 0 314 1 57 2 -573 2 -630 0 -887 -1 -572 -2z M4073 5703
c9 -2 25 -2 35 0 9 3 1 5 -18 5 -19 0 -27 -2 -17 -5z M4156 5699 c3 -5 57 -9
121 -9 64 0 114 2 111 5 -9 9 -238 13 -232 4z M3598 5683 c12 -2 30 -2 40 0 9
3 -1 5 -23 4 -22 0 -30 -2 -17 -4z M3928 5683 c28 -2 76 -2 105 0 28 2 5 3
-53 3 -58 0 -81 -1 -52 -3z M6840 5670 c-6 -11 -8 -20 -6 -20 3 0 10 9 16 20
6 11 8 20 6 20 -3 0 -10 -9 -16 -20z M3423 5673 c9 -2 25 -2 35 0 9 3 1 5 -18
5 -19 0 -27 -2 -17 -5z M3708 5673 c23 -2 61 -2 85 0 23 2 4 4 -43 4 -47 0
-66 -2 -42 -4z M3537 5663 c18 -2 50 -2 70 0 21 2 7 4 -32 4 -38 0 -55 -2 -38
-4z M3398 5653 c17 -2 47 -2 65 0 17 2 3 4 -33 4 -36 0 -50 -2 -32 -4z M3268
5643 c18 -2 45 -2 60 0 15 2 0 4 -33 4 -33 0 -45 -2 -27 -4z M3143 5633 c15
-2 39 -2 55 0 15 2 2 4 -28 4 -30 0 -43 -2 -27 -4z M6810 5621 c-15 -30 -14
-31 38 -29 l47 1 -43 4 c-38 4 -41 6 -32 24 6 10 8 19 6 19 -3 0 -10 -9 -16
-19z M3033 5623 c15 -2 37 -2 50 0 12 2 0 4 -28 4 -27 0 -38 -2 -22 -4z M2913
5613 c15 -2 39 -2 55 0 15 2 2 4 -28 4 -30 0 -43 -2 -27 -4z M2803 5603 c15
-2 37 -2 50 0 12 2 0 4 -28 4 -27 0 -38 -2 -22 -4z M6923 5603 c9 -2 23 -2 30
0 6 3 -1 5 -18 5 -16 0 -22 -2 -12 -5z M2698 5593 c12 -2 32 -2 45 0 12 2 2 4
-23 4 -25 0 -35 -2 -22 -4z M2603 5583 c15 -2 37 -2 50 0 12 2 0 4 -28 4 -27
0 -38 -2 -22 -4z M6938 5583 c12 -2 32 -2 45 0 12 2 2 4 -23 4 -25 0 -35 -2
-22 -4z M2508 5573 c12 -2 30 -2 40 0 9 3 -1 5 -23 4 -22 0 -30 -2 -17 -4z
M7033 5573 c15 -2 37 -2 50 0 12 2 0 4 -28 4 -27 0 -38 -2 -22 -4z M2418 5563
c12 -2 32 -2 45 0 12 2 2 4 -23 4 -25 0 -35 -2 -22 -4z M7138 5563 c12 -2 32
-2 45 0 12 2 2 4 -23 4 -25 0 -35 -2 -22 -4z M2333 5553 c9 -2 25 -2 35 0 9 3
1 5 -18 5 -19 0 -27 -2 -17 -5z M7228 5553 c12 -2 32 -2 45 0 12 2 2 4 -23 4
-25 0 -35 -2 -22 -4z M2238 5543 c12 -2 32 -2 45 0 12 2 2 4 -23 4 -25 0 -35
-2 -22 -4z M7318 5543 c12 -2 30 -2 40 0 9 3 -1 5 -23 4 -22 0 -30 -2 -17 -4z
M2158 5533 c12 -2 30 -2 40 0 9 3 -1 5 -23 4 -22 0 -30 -2 -17 -4z M7408 5533
c12 -2 32 -2 45 0 12 2 2 4 -23 4 -25 0 -35 -2 -22 -4z M2078 5523 c12 -2 30
-2 40 0 9 3 -1 5 -23 4 -22 0 -30 -2 -17 -4z M7503 5523 c9 -2 25 -2 35 0 9 3
1 5 -18 5 -19 0 -27 -2 -17 -5z M1998 5513 c12 -2 30 -2 40 0 9 3 -1 5 -23 4
-22 0 -30 -2 -17 -4z M7588 5513 c12 -2 30 -2 40 0 9 3 -1 5 -23 4 -22 0 -30
-2 -17 -4z M1923 5503 c9 -2 25 -2 35 0 9 3 1 5 -18 5 -19 0 -27 -2 -17 -5z
M7663 5503 c9 -2 25 -2 35 0 9 3 1 5 -18 5 -19 0 -27 -2 -17 -5z M1843 5493
c9 -2 25 -2 35 0 9 3 1 5 -18 5 -19 0 -27 -2 -17 -5z M7743 5493 c9 -2 25 -2
35 0 9 3 1 5 -18 5 -19 0 -27 -2 -17 -5z M1773 5483 c9 -2 23 -2 30 0 6 3 -1
5 -18 5 -16 0 -22 -2 -12 -5z M7823 5483 c9 -2 25 -2 35 0 9 3 1 5 -18 5 -19
0 -27 -2 -17 -5z M1713 5473 c9 -2 23 -2 30 0 6 3 -1 5 -18 5 -16 0 -22 -2
-12 -5z M7893 5473 c9 -2 25 -2 35 0 9 3 1 5 -18 5 -19 0 -27 -2 -17 -5z
M1643 5463 c9 -2 25 -2 35 0 9 3 1 5 -18 5 -19 0 -27 -2 -17 -5z M7963 5463
c9 -2 25 -2 35 0 9 3 1 5 -18 5 -19 0 -27 -2 -17 -5z M1428 5453 c6 -2 18 -2
25 0 6 3 1 5 -13 5 -14 0 -19 -2 -12 -5z M1568 5453 c12 -2 30 -2 40 0 9 3 -1
5 -23 4 -22 0 -30 -2 -17 -4z M8043 5453 c9 -2 23 -2 30 0 6 3 -1 5 -18 5 -16
0 -22 -2 -12 -5z M1503 5443 c9 -2 23 -2 30 0 6 3 -1 5 -18 5 -16 0 -22 -2
-12 -5z M8113 5443 c9 -2 25 -2 35 0 9 3 1 5 -18 5 -19 0 -27 -2 -17 -5z
M1443 5433 c9 -2 23 -2 30 0 6 3 -1 5 -18 5 -16 0 -22 -2 -12 -5z M8193 5433
c9 -2 23 -2 30 0 6 3 -1 5 -18 5 -16 0 -22 -2 -12 -5z M1378 5423 c6 -2 18 -2
25 0 6 3 1 5 -13 5 -14 0 -19 -2 -12 -5z M8263 5423 c9 -2 23 -2 30 0 6 3 -1
5 -18 5 -16 0 -22 -2 -12 -5z M1313 5413 c9 -2 25 -2 35 0 9 3 1 5 -18 5 -19
0 -27 -2 -17 -5z M8333 5413 c9 -2 23 -2 30 0 6 3 -1 5 -18 5 -16 0 -22 -2
-12 -5z M1258 5403 c6 -2 18 -2 25 0 6 3 1 5 -13 5 -14 0 -19 -2 -12 -5z
M8393 5403 c9 -2 25 -2 35 0 9 3 1 5 -18 5 -19 0 -27 -2 -17 -5z M1203 5393
c9 -2 23 -2 30 0 6 3 -1 5 -18 5 -16 0 -22 -2 -12 -5z M8463 5393 c9 -2 23 -2
30 0 6 3 -1 5 -18 5 -16 0 -22 -2 -12 -5z M1143 5383 c9 -2 23 -2 30 0 6 3 -1
5 -18 5 -16 0 -22 -2 -12 -5z M8523 5383 c9 -2 23 -2 30 0 6 3 -1 5 -18 5 -16
0 -22 -2 -12 -5z M1083 5373 c9 -2 23 -2 30 0 6 3 -1 5 -18 5 -16 0 -22 -2
-12 -5z M8593 5373 c9 -2 23 -2 30 0 6 3 -1 5 -18 5 -16 0 -22 -2 -12 -5z
M1023 5363 c9 -2 23 -2 30 0 6 3 -1 5 -18 5 -16 0 -22 -2 -12 -5z M8675 5359
c51 -10 92 -10 50 1 -16 4 -43 8 -60 8 -25 0 -24 -2 10 -9z M925 5350 c-27 -7
-27 -8 -5 -8 14 0 39 4 55 8 27 7 27 8 5 8 -14 0 -38 -4 -55 -8z M8773 5343
c9 -2 23 -2 30 0 6 3 -1 5 -18 5 -16 0 -22 -2 -12 -5z M858 5333 c6 -2 18 -2
25 0 6 3 1 5 -13 5 -14 0 -19 -2 -12 -5z M8838 5333 c6 -2 18 -2 25 0 6 3 1 5
-13 5 -14 0 -19 -2 -12 -5z M803 5323 c9 -2 23 -2 30 0 6 3 -1 5 -18 5 -16 0
-22 -2 -12 -5z M8898 5323 c6 -2 18 -2 25 0 6 3 1 5 -13 5 -14 0 -19 -2 -12
-5z M705 5310 c-27 -7 -27 -8 -5 -8 14 0 39 4 55 8 27 7 27 8 5 8 -14 0 -38
-4 -55 -8z M8953 5313 c9 -2 23 -2 30 0 6 3 -1 5 -18 5 -16 0 -22 -2 -12 -5z
M9035 5299 c51 -10 92 -10 50 1 -16 4 -43 8 -60 8 -25 0 -24 -2 10 -9z M638
5293 c6 -2 18 -2 25 0 6 3 1 5 -13 5 -14 0 -19 -2 -12 -5z M4515 5293 l-200
-3 0 -591 0 -590 75 5 c41 2 175 5 297 5 l221 1 11 31 c6 18 11 62 11 98 l0
66 -179 -2 c-162 -3 -179 -1 -183 15 -3 9 -6 74 -7 145 -3 152 -13 143 161
142 137 0 126 -11 135 139 l6 98 -31 -16 c-23 -12 -60 -16 -147 -16 l-115 0 0
136 0 136 169 -4 169 -3 7 98 c4 54 5 101 2 104 -8 7 -161 10 -402 6z M5093
5240 c4 -35 7 -84 7 -110 l0 -47 69 5 c77 5 184 -5 176 -17 -2 -5 -5 -222 -5
-482 l-1 -474 128 -3 128 -3 -3 487 -3 486 107 -7 c59 -3 115 -10 125 -15 14
-8 18 -4 22 23 6 43 -12 180 -25 188 -5 4 -141 9 -302 13 -160 4 -322 9 -360
12 l-69 6 6 -62z M588 5283 c6 -2 18 -2 25 0 6 3 1 5 -13 5 -14 0 -19 -2 -12
-5z M9133 5283 c9 -2 23 -2 30 0 6 3 -1 5 -18 5 -16 0 -22 -2 -12 -5z M538
5273 c6 -2 18 -2 25 0 6 3 1 5 -13 5 -14 0 -19 -2 -12 -5z M3937 5269 c-38 -5
-77 -14 -88 -19 -20 -11 -143 -248 -211 -405 l-38 -90 2 254 3 253 -95 -6
c-52 -4 -111 -9 -130 -12 l-35 -5 1 -292 c1 -161 -2 -422 -5 -582 -3 -159 -5
-291 -4 -293 0 -2 58 0 127 5 l126 8 4 250 c2 138 5 257 5 265 1 8 29 -48 64
-125 119 -264 159 -339 192 -354 31 -15 267 -22 280 -9 4 4 -7 24 -26 45 -32
37 -115 203 -224 446 l-53 117 38 88 c20 48 64 150 96 227 39 91 74 158 102
193 l42 52 -52 -1 c-29 -1 -84 -5 -121 -10z M9188 5273 c6 -2 18 -2 25 0 6 3
1 5 -13 5 -14 0 -19 -2 -12 -5z M488 5263 c6 -2 18 -2 25 0 6 3 1 5 -13 5 -14
0 -19 -2 -12 -5z M9248 5263 c6 -2 18 -2 25 0 6 3 1 5 -13 5 -14 0 -19 -2 -12
-5z M6036 5223 c3 -21 6 -284 7 -585 l2 -547 60 -6 c33 -3 166 -12 294 -20
l235 -15 73 56 73 56 0 178 0 178 -60 58 c-33 32 -60 63 -60 70 0 7 23 33 51
58 l52 47 0 72 c0 40 -1 115 -3 167 l-2 95 -72 66 -71 66 -80 7 c-44 3 -156
13 -250 21 -93 8 -189 15 -213 15 l-42 0 6 -37z m457 -221 c25 -24 27 -32 27
-102 0 -73 -1 -77 -34 -109 l-33 -32 -77 7 c-45 4 -76 11 -76 18 0 6 -3 66 -7
134 l-6 123 89 -7 c76 -5 93 -10 117 -32z m4 -474 c33 -32 33 -32 33 -128 0
-89 -2 -98 -24 -119 -23 -22 -29 -22 -113 -14 l-88 8 -3 143 -3 142 83 0 c79
0 83 -1 115 -32z M9298 5253 c6 -2 18 -2 25 0 6 3 1 5 -13 5 -14 0 -19 -2 -12
-5z M398 5243 c6 -2 18 -2 25 0 6 3 1 5 -13 5 -14 0 -19 -2 -12 -5z M2865
5245 c-5 -2 -64 -9 -130 -16 l-120 -12 -97 -95 -98 -96 0 -180 0 -181 53 -57
52 -57 95 -16 c128 -21 194 -41 226 -68 24 -21 27 -31 30 -101 3 -76 2 -78
-32 -116 -31 -34 -40 -39 -92 -42 -48 -3 -62 0 -89 20 -29 21 -33 30 -33 69 0
38 -3 44 -17 39 -10 -3 -47 -10 -83 -16 -36 -6 -77 -13 -92 -16 l-28 -6 0 -88
0 -88 68 -58 c37 -32 75 -64 84 -72 15 -12 40 -12 189 4 l172 17 46 40 c25 22
72 64 104 94 l57 54 0 174 0 173 -65 80 c-35 44 -73 83 -82 86 -10 3 -67 12
-128 21 -146 21 -151 23 -170 52 -15 23 -19 51 -16 140 2 50 37 83 98 90 50 5
54 4 88 -30 25 -25 35 -44 35 -66 0 -17 4 -31 9 -31 18 0 205 41 210 46 3 3 4
42 3 87 l-2 82 -78 73 c-70 65 -80 72 -117 71 -22 0 -44 -2 -50 -4z M9353
5243 c9 -2 23 -2 30 0 6 3 -1 5 -18 5 -16 0 -22 -2 -12 -5z M9408 5233 c6 -2
18 -2 25 0 6 3 1 5 -13 5 -14 0 -19 -2 -12 -5z M9458 5223 c6 -2 18 -2 25 0 6
3 1 5 -13 5 -14 0 -19 -2 -12 -5z M258 5213 c6 -2 18 -2 25 0 6 3 1 5 -13 5
-14 0 -19 -2 -12 -5z M9508 5213 c6 -2 18 -2 25 0 6 3 1 5 -13 5 -14 0 -19 -2
-12 -5z M9563 5203 c9 -2 23 -2 30 0 6 3 -1 5 -18 5 -16 0 -22 -2 -12 -5z
M130 5190 c-20 -6 -21 -8 -5 -8 11 0 34 4 50 8 27 7 27 8 5 8 -14 0 -36 -4
-50 -8z M9618 5193 c6 -2 18 -2 25 0 6 3 1 5 -13 5 -14 0 -19 -2 -12 -5z
M9668 5183 c6 -2 18 -2 25 0 6 3 1 5 -13 5 -14 0 -19 -2 -12 -5z M7092 5128
l-71 -53 -2 -365 c-1 -201 -2 -437 -2 -525 l0 -160 119 -11 c66 -6 121 -10
122 -9 2 2 3 86 2 188 -1 153 2 186 14 197 12 9 37 10 96 5 71 -6 83 -10 104
-36 17 -20 26 -46 30 -91 4 -35 12 -103 18 -151 8 -66 8 -94 -1 -114 -6 -14
-10 -27 -9 -29 3 -2 232 -34 250 -34 5 0 6 10 4 23 -7 30 -14 260 -22 664 l-7
333 -84 82 c-46 46 -86 85 -89 87 -5 6 -332 50 -370 51 -21 0 -52 -16 -102
-52z m361 -209 c28 -35 30 -44 31 -256 l1 -63 -35 1 c-19 0 -69 6 -110 12
l-75 12 -3 144 c-2 138 -2 145 20 169 21 22 29 24 83 19 52 -5 63 -10 88 -38z
M9718 5173 c6 -2 18 -2 25 0 6 3 1 5 -13 5 -14 0 -19 -2 -12 -5z M9768 5163
c6 -2 18 -2 25 0 6 3 1 5 -13 5 -14 0 -19 -2 -12 -5z M5 5148 c-3 -7 -4 -440
-3 -963 3 -836 5 -950 18 -951 9 0 10 1 2 3 -10 4 -12 199 -10 964 2 527 2
959 0 959 -1 0 -5 -6 -7 -12z M9812 4203 c-1 -758 -5 -962 -14 -966 -10 -4
-10 -6 0 -6 7 -1 15 5 17 12 3 6 4 442 3 967 l-3 955 -3 -962z M1801 5111
l-164 -28 -77 -79 -78 -79 -6 -65 c-8 -96 -32 -992 -26 -994 3 -1 60 6 128 17
l122 19 0 187 c0 141 3 192 13 206 10 13 38 21 97 30 80 12 83 11 109 -11 26
-22 27 -27 29 -131 2 -59 5 -120 8 -135 3 -15 1 -43 -5 -63 -12 -46 -3 -50 86
-36 37 5 88 13 113 16 l45 5 0 517 0 516 -80 68 c-95 81 -80 79 -314 40z m114
-236 c24 -23 25 -29 25 -164 0 -77 -4 -142 -8 -145 -8 -5 -192 -36 -213 -36
-7 0 -9 46 -8 143 3 132 5 144 27 175 29 40 52 51 110 51 33 1 49 -5 67 -24z
M7985 5012 c3 -31 7 -292 8 -579 1 -341 5 -523 12 -523 6 0 140 -20 299 -45
159 -25 290 -45 292 -45 6 0 4 124 -2 174 l-7 46 -41 0 c-42 0 -284 35 -291
42 -3 2 -7 215 -11 474 -4 258 -8 470 -9 472 -2 2 -47 10 -101 17 -55 8 -112
17 -127 20 l-28 5 6 -58z M805 4945 c-143 -28 -270 -55 -282 -59 -21 -7 -22
-12 -17 -64 2 -31 1 -298 -4 -592 -4 -294 -7 -536 -6 -538 1 -2 33 4 70 13 38
9 169 36 292 60 l223 43 65 57 c35 31 69 65 74 75 5 10 13 97 16 194 l7 175
-54 51 c-30 27 -57 50 -61 50 -18 0 -4 29 42 90 l50 65 0 166 0 166 -52 35
c-111 73 -72 72 -363 13z m152 -207 c41 -38 28 -165 -24 -221 -26 -29 -40 -36
-89 -42 -31 -4 -63 -9 -71 -12 -10 -4 -13 21 -13 131 l0 136 28 6 c15 3 41 10
57 14 54 15 88 11 112 -12z m-4 -486 c25 -26 27 -34 27 -119 0 -120 -14 -139
-116 -159 -114 -22 -104 -35 -104 130 l0 145 58 11 c31 6 62 13 67 15 25 9 43
3 68 -23z M8764 4921 c3 -20 7 -282 8 -583 3 -479 5 -548 18 -548 8 0 138 -23
287 -52 150 -28 275 -49 278 -46 12 12 17 80 10 142 -5 52 -10 66 -23 66 -9 0
-83 12 -164 27 l-148 27 -1 125 c-1 69 -2 158 -4 196 -1 39 -4 197 -6 352 l-4
283 -50 10 c-27 6 -85 16 -128 24 l-78 13 5 -36z M2275 3593 c11 -3 23 -10 27
-17 5 -7 8 -5 8 7 0 12 -7 17 -27 16 -22 -1 -23 -2 -8 -6z M2178 3583 c12 -2
30 -2 40 0 9 3 -1 5 -23 4 -22 0 -30 -2 -17 -4z M7613 3583 c9 -2 23 -2 30 0
6 3 -1 5 -18 5 -16 0 -22 -2 -12 -5z M2088 3573 c6 -2 18 -2 25 0 6 3 1 5 -13
5 -14 0 -19 -2 -12 -5z M7698 3573 c6 -2 18 -2 25 0 6 3 1 5 -13 5 -14 0 -19
-2 -12 -5z M7783 3563 c9 -2 23 -2 30 0 6 3 -1 5 -18 5 -16 0 -22 -2 -12 -5z
M1943 3553 c9 -2 23 -2 30 0 6 3 -1 5 -18 5 -16 0 -22 -2 -12 -5z M7853 3553
c9 -2 23 -2 30 0 6 3 -1 5 -18 5 -16 0 -22 -2 -12 -5z M1873 3543 c9 -2 25 -2
35 0 9 3 1 5 -18 5 -19 0 -27 -2 -17 -5z M7933 3543 c9 -2 25 -2 35 0 9 3 1 5
-18 5 -19 0 -27 -2 -17 -5z M8018 3533 c6 -2 18 -2 25 0 6 3 1 5 -13 5 -14 0
-19 -2 -12 -5z M1718 3523 c6 -2 18 -2 25 0 6 3 1 5 -13 5 -14 0 -19 -2 -12
-5z M8098 3523 c6 -2 18 -2 25 0 6 3 1 5 -13 5 -14 0 -19 -2 -12 -5z M1503
3493 c9 -2 23 -2 30 0 6 3 -1 5 -18 5 -16 0 -22 -2 -12 -5z M1428 3483 c6 -2
18 -2 25 0 6 3 1 5 -13 5 -14 0 -19 -2 -12 -5z M8368 3483 c6 -2 18 -2 25 0 6
3 1 5 -13 5 -14 0 -19 -2 -12 -5z M1368 3473 c6 -2 18 -2 25 0 6 3 1 5 -13 5
-14 0 -19 -2 -12 -5z M8438 3473 c6 -2 18 -2 25 0 6 3 1 5 -13 5 -14 0 -19 -2
-12 -5z M1238 3453 c6 -2 18 -2 25 0 6 3 1 5 -13 5 -14 0 -19 -2 -12 -5z M878
3393 c6 -2 18 -2 25 0 6 3 1 5 -13 5 -14 0 -19 -2 -12 -5z M9832 3380 c0 -14
2 -19 5 -12 2 6 2 18 0 25 -3 6 -5 1 -5 -13z M708 3363 c6 -2 18 -2 25 0 6 3
1 5 -13 5 -14 0 -19 -2 -12 -5z M218 3273 c6 -2 18 -2 25 0 6 3 1 5 -13 5 -14
0 -19 -2 -12 -5z M168 3263 c6 -2 18 -2 25 0 6 3 1 5 -13 5 -14 0 -19 -2 -12
-5z M9640 3260 c14 -4 36 -8 50 -8 22 0 22 1 -5 8 -16 4 -39 8 -50 8 -16 0
-15 -2 5 -8z M118 3253 c6 -2 18 -2 25 0 6 3 1 5 -13 5 -14 0 -19 -2 -12 -5z
M68 3243 c6 -2 18 -2 25 0 6 3 1 5 -13 5 -14 0 -19 -2 -12 -5z M9738 3243 c6
-2 18 -2 25 0 6 3 1 5 -13 5 -14 0 -19 -2 -12 -5z M2202 3190 c0 -14 2 -19 5
-12 2 6 2 18 0 25 -3 6 -5 1 -5 -13z M7652 3165 c0 -16 2 -22 5 -12 2 9 2 23
0 30 -3 6 -5 -1 -5 -18z M7662 3095 c0 -16 2 -22 5 -12 2 9 2 23 0 30 -3 6 -5
-1 -5 -18z M2182 3055 c0 -16 2 -22 5 -12 2 9 2 23 0 30 -3 6 -5 -1 -5 -18z
M7672 3010 c0 -19 2 -27 5 -17 2 9 2 25 0 35 -3 9 -5 1 -5 -18z M2173 2965 c0
-27 2 -38 4 -22 2 15 2 37 0 50 -2 12 -4 0 -4 -28z M7683 2910 c0 -30 2 -43 4
-27 2 15 2 39 0 55 -2 15 -4 2 -4 -28z M2164 2740 c0 -74 1 -105 3 -67 2 37 2
97 0 135 -2 37 -3 6 -3 -68z M7694 2705 c0 -49 1 -71 3 -48 2 23 2 64 0 90 -2
26 -3 8 -3 -42z M7683 2540 c0 -30 2 -43 4 -27 2 15 2 39 0 55 -2 15 -4 2 -4
-28z M2173 2505 c0 -27 2 -38 4 -22 2 15 2 37 0 50 -2 12 -4 0 -4 -28z M7672
2430 c0 -19 2 -27 5 -17 2 9 2 25 0 35 -3 9 -5 1 -5 -18z M2182 2410 c0 -19 2
-27 5 -17 2 9 2 25 0 35 -3 9 -5 1 -5 -18z M7662 2350 c0 -19 2 -27 5 -17 2 9
2 25 0 35 -3 9 -5 1 -5 -18z M2192 2330 c0 -14 2 -19 5 -12 2 6 2 18 0 25 -3
6 -5 1 -5 -13z M7652 2280 c0 -14 2 -19 5 -12 2 6 2 18 0 25 -3 6 -5 1 -5 -13z
M2202 2260 c0 -14 2 -19 5 -12 2 6 2 18 0 25 -3 6 -5 1 -5 -13z M2320 1805 c0
-5 5 -17 10 -25 5 -8 10 -10 10 -5 0 6 -5 17 -10 25 -5 8 -10 11 -10 5z M7516
1775 c-9 -26 -7 -32 5 -12 6 10 9 21 6 23 -2 3 -7 -2 -11 -11z M2340 1755 c0
-5 5 -17 10 -25 5 -8 10 -10 10 -5 0 6 -5 17 -10 25 -5 8 -10 11 -10 5z M7496
1725 c-9 -26 -7 -32 5 -12 6 10 9 21 6 23 -2 3 -7 -2 -11 -11z M2360 1705 c0
-5 5 -17 10 -25 5 -8 10 -10 10 -5 0 6 -5 17 -10 25 -5 8 -10 11 -10 5z M7476
1675 c-9 -26 -7 -32 5 -12 6 10 9 21 6 23 -2 3 -7 -2 -11 -11z M2381 1655 c0
-5 6 -21 14 -35 8 -14 14 -20 14 -15 0 6 -6 21 -14 35 -8 14 -14 21 -14 15z
M7397 1505 c-9 -19 -15 -35 -12 -35 7 0 37 61 33 66 -3 2 -12 -12 -21 -31z
M2470 1470 c11 -22 23 -40 25 -40 3 0 -4 18 -15 40 -11 22 -23 40 -25 40 -3 0
4 -18 15 -40z M7350 1420 c-6 -11 -8 -20 -6 -20 3 0 10 9 16 20 6 11 8 20 6
20 -3 0 -10 -9 -16 -20z M2525 1370 c9 -16 18 -30 21 -30 2 0 -2 14 -11 30 -9
17 -18 30 -21 30 -2 0 2 -13 11 -30z M7300 1330 c-6 -11 -8 -20 -6 -20 3 0 10
9 16 20 6 11 8 20 6 20 -3 0 -10 -9 -16 -20z M7273 1288 c-15 -20 -25 -38 -20
-38 3 0 12 11 21 25 17 26 16 35 -1 13z M2715 1090 c10 -11 20 -20 23 -20 3 0
-3 9 -13 20 -10 11 -20 20 -23 20 -3 0 3 -9 13 -20z M7124 1078 l-19 -23 23
19 c12 11 22 21 22 23 0 8 -8 2 -26 -19z M7084 1028 l-19 -23 23 19 c12 11 22
21 22 23 0 8 -8 2 -26 -19z M2795 990 c10 -11 20 -20 23 -20 3 0 -3 9 -13 20
-10 11 -20 20 -23 20 -3 0 3 -9 13 -20z M7024 958 l-29 -33 33 29 c17 17 32
31 32 33 0 8 -8 1 -36 -29z M2945 830 c60 -60 112 -110 115 -110 2 0 -45 50
-105 110 -60 61 -112 110 -115 110 -2 0 45 -49 105 -110z M6900 823 l-85 -88
88 85 c81 79 92 90 84 90 -1 0 -41 -39 -87 -87z M6764 698 l-29 -33 33 29 c17
17 32 31 32 33 0 8 -8 1 -36 -29z M3100 685 c13 -14 26 -25 28 -25 3 0 -5 11
-18 25 -13 14 -26 25 -28 25 -3 0 5 -11 18 -25z M6694 638 l-19 -23 23 19 c12
11 22 21 22 23 0 8 -8 2 -26 -19z M6490 489 c-22 -18 -22 -19 -3 -10 12 6 25
16 28 21 9 15 3 12 -25 -11z M3440 436 c0 -3 9 -10 20 -16 11 -6 20 -8 20 -6
0 3 -9 10 -20 16 -11 6 -20 8 -20 6z M6357 406 c-48 -29 -61 -43 -22 -23 31
16 74 46 65 46 -3 0 -22 -10 -43 -23z M3520 385 c0 -2 18 -14 40 -25 22 -11
40 -18 40 -15 0 2 -18 14 -40 25 -22 11 -40 18 -40 15z M6268 354 c-38 -20
-36 -28 2 -9 17 9 30 18 30 20 0 7 -1 6 -32 -11z M3650 315 c0 -7 121 -67 126
-63 2 2 -26 18 -61 36 -36 17 -65 30 -65 27z M6010 225 c-14 -8 -20 -14 -15
-14 6 0 21 6 35 14 14 8 21 14 15 14 -5 0 -21 -6 -35 -14z M3850 215 c14 -8
30 -14 35 -14 6 0 -1 6 -15 14 -14 8 -29 14 -35 14 -5 0 1 -6 15 -14z M3990
160 c8 -5 20 -10 25 -10 6 0 3 5 -5 10 -8 5 -19 10 -25 10 -5 0 -3 -5 5 -10z
M5755 130 c-13 -6 -15 -9 -5 -9 8 0 22 4 30 9 18 12 2 12 -25 0z M5458 53 c6
-2 18 -2 25 0 6 3 1 5 -13 5 -14 0 -19 -2 -12 -5z M4478 33 c6 -2 18 -2 25 0
6 3 1 5 -13 5 -14 0 -19 -2 -12 -5z M5353 33 c9 -2 23 -2 30 0 6 3 -1 5 -18 5
-16 0 -22 -2 -12 -5z M4553 23 c9 -2 23 -2 30 0 6 3 -1 5 -18 5 -16 0 -22 -2
-12 -5z M5273 23 c9 -2 23 -2 30 0 6 3 -1 5 -18 5 -16 0 -22 -2 -12 -5z M4643
13 c9 -2 25 -2 35 0 9 3 1 5 -18 5 -19 0 -27 -2 -17 -5z M5173 13 c9 -2 25 -2
35 0 9 3 1 5 -18 5 -19 0 -27 -2 -17 -5z M4763 3 c20 -2 54 -2 75 0 20 2 3 4
-38 4 -41 0 -58 -2 -37 -4z M5008 3 c23 -2 59 -2 80 0 20 2 1 4 -43 4 -44 0
-61 -2 -37 -4z"/>
</g>
</svg>
