<svg xmlns="http://www.w3.org/2000/svg" width="1880" height="418" viewBox="0 0 1880 418" preserveAspectRatio="xMidYMid meet">
<g transform="translate(0.000000,418.000000) scale(0.100000,-0.100000)"
fill="#021F51" stroke="none">
<path d="M1485 4155 c-230 -51 -434 -179 -572 -360 -64 -84 -107 -183 -214
-496 -61 -178 -171 -502 -246 -719 -200 -586 -221 -649 -333 -965 -114 -323
-128 -388 -111 -513 13 -100 40 -170 100 -257 89 -132 244 -234 413 -275 80
-19 120 -20 1051 -20 l967 0 1 -27 c3 -131 37 -505 46 -511 6 -4 328 -7 715
-6 l703 1 72 109 c601 914 961 1473 1564 2424 509 804 571 902 565 907 -4 4
-697 6 -1357 4 l-205 -1 -79 -137 c-44 -76 -131 -221 -193 -323 -63 -102 -174
-284 -247 -405 -72 -121 -147 -244 -166 -274 l-33 -53 -8 28 c-4 16 -8 174 -8
350 l-1 322 -22 6 c-12 3 -145 6 -294 6 -150 0 -273 3 -273 7 0 3 88 270 195
592 107 323 195 590 195 594 0 4 -487 7 -1082 6 -857 -1 -1096 -4 -1143 -14z
m1887 -225 c21 0 28 24 -159 -542 l-144 -438 -430 0 c-405 0 -430 1 -425 18 2
9 21 74 42 145 20 70 35 129 33 132 -10 9 -379 9 -387 0 -5 -6 -69 -188 -142
-405 -167 -495 -253 -744 -374 -1083 -53 -147 -96 -270 -96 -272 0 -3 102 -4
227 -3 l226 3 103 300 c57 165 103 307 103 316 1 14 -14 16 -105 15 -58 -1
-110 2 -115 5 -5 3 37 142 94 310 l103 304 867 3 c689 2 868 0 872 -10 2 -7 6
-148 9 -313 12 -596 17 -792 22 -893 l6 -104 50 84 c28 45 125 209 216 363
174 294 440 735 675 1118 l140 227 116 0 c64 1 286 1 494 2 207 1 380 -1 382
-4 5 -4 -139 -234 -532 -853 -63 -99 -153 -241 -200 -315 -47 -74 -122 -191
-167 -260 -45 -69 -135 -209 -201 -313 -66 -103 -145 -226 -176 -275 -30 -48
-147 -226 -258 -397 -112 -170 -237 -363 -279 -427 l-77 -118 -45 -1 c-136 -3
-1042 0 -1046 4 -5 5 -31 352 -58 792 -9 138 -19 296 -22 353 -4 56 -10 100
-13 97 -3 -4 -65 -162 -137 -353 l-131 -347 -894 -3 c-593 -1 -911 1 -945 8
-170 35 -305 164 -338 324 -19 88 -11 130 60 331 171 488 450 1296 599 1735
121 359 128 376 189 456 84 113 203 195 361 251 l80 28 425 5 c322 4 1048 4
1402 0z M1553 3795 c-169 -43 -309 -138 -381 -257 -19 -33 -87 -216 -171 -464
-77 -225 -189 -553 -251 -729 -260 -745 -380 -1110 -380 -1154 0 -89 87 -208
188 -258 l57 -28 775 -2 c426 -1 818 2 870 5 l95 7 46 125 c58 159 183 498
296 802 48 131 91 238 94 238 3 0 9 -57 12 -127 20 -392 62 -1088 82 -1363 8
-107 15 -203 15 -212 0 -17 29 -18 458 -18 l459 0 60 93 c34 50 132 200 218
332 87 132 242 373 346 535 104 162 226 354 273 425 46 72 159 249 252 395 92
146 266 419 386 608 120 189 218 345 218 348 0 3 -160 4 -355 2 -339 -3 -355
-4 -374 -23 -21 -23 -185 -292 -766 -1260 -221 -368 -420 -699 -443 -734 l-40
-64 -6 84 c-3 46 -8 242 -11 434 -7 485 -15 882 -20 995 l-4 95 -769 3 -770 2
-61 -181 c-34 -99 -64 -192 -67 -205 l-6 -24 116 0 c95 0 116 -3 116 -15 0 -8
-25 -88 -56 -177 -31 -90 -91 -266 -134 -393 -43 -126 -81 -238 -85 -247 -7
-17 -33 -18 -356 -18 l-348 0 13 43 c8 23 56 166 109 317 236 684 283 819 412
1202 125 372 139 407 164 417 17 8 125 10 322 9 l296 -3 -38 -120 c-21 -66
-41 -132 -44 -147 l-6 -27 313 2 313 2 122 365 c67 201 122 371 123 378 0 9
-165 12 -792 12 l-793 -1 -92 -24z M6375 2849 c-3 -3 -36 -96 -74 -205 -80
-228 -180 -505 -306 -844 -47 -129 -111 -302 -141 -385 -30 -82 -66 -177 -78
-210 l-24 -60 507 -3 c446 -3 513 -1 561 14 72 21 142 72 174 127 26 43 208
528 221 585 10 46 -11 109 -45 133 l-29 22 58 27 c64 31 113 83 135 144 8 23
47 129 87 236 78 211 88 267 56 328 -25 46 -83 81 -153 92 -68 10 -943 10
-949 -1z m620 -329 c5 -8 -64 -214 -96 -283 -14 -31 -47 -43 -109 -41 -25 1
-79 2 -121 3 l-77 1 35 93 c19 50 41 112 50 137 8 25 22 57 29 73 l15 27 134
0 c75 0 136 -4 140 -10z m-238 -645 c8 -23 -127 -384 -148 -396 -20 -10 -279
-13 -279 -2 0 8 140 394 147 406 2 4 65 7 139 7 112 0 136 -3 141 -15z M8000
2847 c-157 -22 -266 -125 -325 -307 -10 -30 -51 -145 -92 -255 -41 -110 -113
-306 -160 -435 -68 -190 -225 -611 -258 -693 -7 -16 6 -17 226 -15 l233 3 89
250 c49 138 107 301 129 363 l41 112 154 0 c85 0 152 -3 150 -7 -6 -10 -258
-683 -264 -705 -5 -17 10 -18 221 -18 l226 0 13 32 c8 18 75 202 150 408 365
1004 377 1040 377 1091 0 81 -38 133 -120 166 -40 16 -82 18 -391 18 -190 0
-370 -3 -399 -8z m407 -329 c7 -9 -7 -60 -47 -168 l-57 -155 -104 -3 c-57 -2
-123 0 -147 3 -50 7 -51 -10 16 173 57 159 62 162 218 162 77 0 115 -4 121
-12z M9362 2849 c-110 -21 -206 -89 -249 -173 -14 -28 -77 -190 -139 -361 -62
-170 -115 -317 -119 -326 -5 -14 8 -17 97 -23 92 -6 597 -74 607 -82 2 -2 -22
-72 -54 -156 -31 -84 -64 -172 -72 -196 -9 -24 -24 -47 -34 -53 -11 -5 -78 -8
-151 -7 -111 3 -133 5 -131 18 1 8 17 59 37 113 l36 97 -227 -2 -227 -3 -17
-45 c-46 -119 -88 -240 -94 -273 -15 -81 31 -163 119 -210 40 -21 53 -22 424
-25 424 -3 445 -1 535 59 71 47 99 96 175 310 162 451 220 615 226 635 6 19 2
22 -46 27 -147 16 -305 41 -464 72 -97 19 -178 35 -180 35 -10 0 79 225 94
236 20 15 248 19 271 5 11 -7 10 -19 -7 -70 l-21 -61 223 0 222 0 38 105 c48
132 53 173 32 229 -20 53 -46 78 -111 108 -49 22 -58 23 -400 24 -192 1 -369
-2 -393 -7z M10554 2826 c-7 -17 -76 -209 -153 -426 -77 -217 -174 -489 -215
-605 -42 -115 -111 -304 -153 -420 -41 -115 -78 -216 -80 -222 -4 -10 45 -13
225 -13 l230 0 76 218 c154 437 180 503 187 485 3 -10 14 -61 23 -113 10 -52
35 -187 57 -300 21 -113 41 -224 45 -248 l7 -42 228 0 229 0 -5 23 c-12 59
-116 595 -134 696 -17 92 -19 117 -8 130 14 19 488 579 562 666 96 112 165
194 165 198 0 2 -113 3 -250 2 -206 -1 -252 -3 -263 -15 -8 -8 -70 -80 -138
-159 -136 -159 -229 -267 -328 -381 -36 -41 -61 -65 -57 -55 85 221 215 604
207 609 -4 3 -105 5 -225 4 l-218 -1 -14 -31z M11966 2852 c-7 -11 -36 -91
-91 -252 -71 -203 -363 -1007 -449 -1236 -42 -111 -76 -206 -76 -213 0 -8 133
-11 499 -11 l498 0 52 148 c29 81 55 155 58 165 5 16 -12 17 -267 17 -255 0
-272 1 -265 18 9 21 135 375 135 379 0 2 80 3 178 3 l179 0 53 148 c29 81 55
153 58 160 3 9 -35 12 -173 12 -165 0 -177 1 -170 18 4 9 29 78 55 152 26 74
51 143 55 153 7 16 30 17 284 17 l276 0 50 153 c27 83 51 157 53 164 3 9 -108
12 -492 12 -272 0 -497 -3 -500 -7z M13126 2851 c-13 -5 -35 -53 -76 -162
l-57 -154 164 -3 164 -2 -6 -23 c-12 -38 -496 -1331 -506 -1349 -9 -17 4 -18
223 -18 l233 0 72 198 c97 268 400 1097 420 1149 l16 43 160 2 160 3 53 145
c29 80 53 152 54 161 0 15 -49 16 -527 16 -291 0 -536 -3 -547 -6z M14335
2841 c-4 -9 -54 -151 -111 -316 -58 -165 -153 -430 -211 -590 -58 -159 -116
-319 -128 -355 -13 -36 -53 -146 -89 -244 -36 -99 -66 -183 -66 -188 0 -5 230
-7 528 -6 515 3 528 3 573 25 60 28 114 75 145 128 44 76 214 554 214 603 0
45 -25 96 -56 112 l-25 14 45 17 c59 22 100 53 124 92 22 35 186 472 197 524
15 72 -29 144 -110 180 -37 16 -83 18 -532 19 -439 0 -493 -1 -498 -15z m631
-326 c7 -18 -93 -290 -113 -307 -11 -9 -53 -12 -145 -11 -72 1 -133 4 -136 7
-4 5 59 183 104 294 l13 32 136 0 c109 0 137 -3 141 -15z m-229 -640 c7 -20
-124 -376 -145 -392 -11 -9 -59 -13 -155 -13 -107 0 -138 3 -134 13 2 6 37
101 77 210 l73 197 139 0 c115 0 140 -3 145 -15z M15958 2850 c-111 -19 -234
-105 -281 -196 -8 -16 -76 -200 -152 -409 -107 -297 -360 -983 -400 -1087 -7
-17 8 -18 224 -18 176 0 233 3 236 13 2 6 52 145 110 307 59 162 116 321 127
353 l21 57 153 0 154 0 -11 -27 c-120 -315 -259 -689 -259 -700 0 -2 102 -2
227 -1 l227 3 103 285 c57 157 144 393 193 525 222 599 252 687 247 736 -5 61
-37 103 -100 136 l-52 26 -360 3 c-198 1 -381 -2 -407 -6z m410 -329 c11 -6 1
-42 -46 -167 l-59 -159 -152 -3 c-129 -2 -152 0 -148 12 3 8 24 67 47 132 52
147 54 151 93 174 27 17 51 20 142 20 61 0 116 -4 123 -9z M17134 2848 c-3 -4
-38 -101 -78 -215 -179 -505 -479 -1339 -533 -1481 -4 -10 90 -12 463 -10
l468 3 52 140 c28 77 55 150 58 162 l7 23 -239 2 -240 3 104 285 c58 157 138
375 179 485 154 415 216 595 210 605 -8 12 -443 11 -451 -2z M18214 2848 c-3
-4 -36 -96 -74 -205 -92 -266 -160 -458 -203 -573 -56 -153 -294 -789 -321
-862 l-26 -68 469 0 468 0 60 163 59 162 -238 3 c-131 1 -238 5 -238 8 0 8 73
210 299 823 110 300 198 548 195 552 -6 10 -444 8 -450 -3z"/>
</g>
<g transform="translate(0.000000,418.000000) scale(0.100000,-0.100000)"
fill="#FE5A08" stroke="none">
<path d="M4935 738 c-27 -39 -71 -100 -97 -135 -27 -35 -48 -66 -48 -68 0 -3
3068 -5 6818 -5 l6818 0 189 140 188 140 -6909 0 -6909 0 -50 -72z"/>
</g>
<g transform="translate(0.000000,418.000000) scale(0.100000,-0.100000)"
fill="#FFFFFF" stroke="none">
<path d="M1950 4173 c1013 -7 1770 -7 1770 0 0 4 -485 6 -1077 5 -593 -2 -905
-4 -693 -5z M1184 4044 c-18 -14 -18 -15 4 -4 12 6 22 13 22 15 0 8 -5 6 -26
-11z M999 3903 l-34 -38 38 34 c34 33 42 41 34 41 -2 0 -19 -17 -38 -37z
M1970 3930 l-425 -5 -80 -28 c-158 -56 -277 -138 -361 -251 -61 -80 -68 -97
-189 -456 -149 -439 -428 -1247 -599 -1735 -71 -201 -79 -243 -60 -331 33
-160 168 -289 338 -324 34 -7 352 -9 945 -8 l894 3 131 347 c72 191 134 349
137 353 3 3 9 -41 13 -97 3 -57 13 -215 22 -353 27 -440 53 -787 58 -792 4 -4
910 -7 1046 -4 l45 1 77 118 c42 64 167 257 279 427 111 171 228 349 258 397
31 49 110 172 176 275 66 104 156 244 201 313 45 69 120 186 167 260 47 74
137 216 200 315 393 619 537 849 532 853 -2 3 -175 5 -382 4 -208 -1 -430 -1
-494 -2 l-116 0 -140 -227 c-235 -383 -501 -824 -675 -1118 -91 -154 -188
-318 -216 -363 l-50 -84 -6 104 c-5 101 -10 297 -22 893 -3 165 -7 306 -9 313
-4 10 -183 12 -872 10 l-867 -3 -103 -304 c-57 -168 -99 -307 -94 -310 5 -3
57 -6 115 -5 91 1 106 -1 105 -15 0 -9 -46 -151 -103 -316 l-103 -300 -226 -3
c-125 -1 -227 0 -227 3 0 2 43 125 96 272 121 339 207 588 374 1083 73 217
137 399 142 405 8 9 377 9 387 0 2 -3 -13 -62 -33 -132 -21 -71 -40 -136 -42
-145 -5 -17 20 -18 425 -18 l430 0 144 438 c187 566 180 542 159 542 -354 4
-1080 4 -1402 0z m1260 -122 c-1 -7 -56 -177 -123 -378 l-122 -365 -313 -2
-313 -2 6 27 c3 15 23 81 44 147 l38 120 -296 3 c-197 1 -305 -1 -322 -9 -25
-10 -39 -45 -164 -417 -129 -383 -176 -518 -412 -1202 -53 -151 -101 -294
-109 -317 l-13 -43 348 0 c323 0 349 1 356 18 4 9 42 121 85 247 43 127 103
303 134 393 31 89 56 169 56 177 0 12 -21 15 -116 15 l-116 0 6 24 c3 13 33
106 67 205 l61 181 770 -2 769 -3 4 -95 c5 -113 13 -510 20 -995 3 -192 8
-388 11 -434 l6 -84 40 64 c23 35 222 366 443 734 581 968 745 1237 766 1260
19 19 35 20 374 23 195 2 355 1 355 -2 0 -3 -98 -159 -218 -348 -120 -189
-294 -462 -386 -608 -93 -146 -206 -323 -252 -395 -47 -71 -169 -263 -273
-425 -104 -162 -259 -403 -346 -535 -86 -132 -184 -282 -218 -332 l-60 -93
-459 0 c-429 0 -458 1 -458 18 0 9 -7 105 -15 212 -20 275 -62 971 -82 1363
-3 70 -9 127 -12 127 -3 0 -46 -107 -94 -238 -113 -304 -238 -643 -296 -802
l-46 -125 -95 -7 c-52 -3 -444 -6 -870 -5 l-775 2 -57 28 c-101 50 -188 169
-188 258 0 44 120 409 380 1154 62 176 174 504 251 729 84 248 152 431 171
464 72 119 212 214 381 257 l92 24 793 1 c627 0 792 -3 792 -12z M4743 3453
c59 -2 154 -2 210 0 56 1 8 3 -108 3 -115 0 -161 -2 -102 -3z M5093 3453 c9
-2 25 -2 35 0 9 3 1 5 -18 5 -19 0 -27 -2 -17 -5z M5193 3453 c15 -2 37 -2 50
0 12 2 0 4 -28 4 -27 0 -38 -2 -22 -4z M5393 3453 c37 -2 96 -2 130 0 34 2 4
3 -68 3 -71 0 -99 -1 -62 -3z M5608 3453 c6 -2 18 -2 25 0 6 3 1 5 -13 5 -14
0 -19 -2 -12 -5z M5673 3453 c15 -2 37 -2 50 0 12 2 0 4 -28 4 -27 0 -38 -2
-22 -4z M5818 3453 c12 -2 30 -2 40 0 9 3 -1 5 -23 4 -22 0 -30 -2 -17 -4z
M5913 3453 c15 -2 37 -2 50 0 12 2 0 4 -28 4 -27 0 -38 -2 -22 -4z M6123 3453
c48 -2 87 -6 87 -9 0 -2 -7 -17 -16 -32 l-16 -27 21 25 c37 45 29 50 -71 48
l-93 -2 88 -3z M4557 3347 c-3 -8 1 -14 8 -14 7 0 11 6 8 14 -3 7 -6 13 -8 13
-2 0 -5 -6 -8 -13z M620 3145 c0 -5 5 -17 10 -25 5 -8 10 -10 10 -5 0 6 -5 17
-10 25 -5 8 -10 11 -10 5z M6668 2853 c6 -2 18 -2 25 0 6 3 1 5 -13 5 -14 0
-19 -2 -12 -5z M7303 2853 c9 -2 23 -2 30 0 6 3 -1 5 -18 5 -16 0 -22 -2 -12
-5z M8003 2853 c9 -2 25 -2 35 0 9 3 1 5 -18 5 -19 0 -27 -2 -17 -5z M8098
2853 c18 -2 45 -2 60 0 15 2 0 4 -33 4 -33 0 -45 -2 -27 -4z M8713 2853 c9 -2
23 -2 30 0 6 3 -1 5 -18 5 -16 0 -22 -2 -12 -5z M9363 2853 c9 -2 23 -2 30 0
6 3 -1 5 -18 5 -16 0 -22 -2 -12 -5z M10063 2853 c9 -2 25 -2 35 0 9 3 1 5
-18 5 -19 0 -27 -2 -17 -5z M10550 2839 c-7 -11 -10 -23 -7 -25 2 -2 9 7 15
21 14 30 7 33 -8 4z M10828 2853 c6 -2 18 -2 25 0 6 3 1 5 -13 5 -14 0 -19 -2
-12 -5z M11468 2853 c12 -2 32 -2 45 0 12 2 2 4 -23 4 -25 0 -35 -2 -22 -4z
M11568 2853 c12 -2 32 -2 45 0 12 2 2 4 -23 4 -25 0 -35 -2 -22 -4z M11708
2853 c6 -2 18 -2 25 0 6 3 1 5 -13 5 -14 0 -19 -2 -12 -5z M13106 2851 c-4 -5
3 -7 14 -4 23 6 26 13 6 13 -8 0 -17 -4 -20 -9z M13548 2853 c6 -2 18 -2 25 0
6 3 1 5 -13 5 -14 0 -19 -2 -12 -5z M13648 2853 c6 -2 18 -2 25 0 6 3 1 5 -13
5 -14 0 -19 -2 -12 -5z M13728 2853 c6 -2 18 -2 25 0 6 3 1 5 -13 5 -14 0 -19
-2 -12 -5z M14326 2845 c-9 -26 -7 -32 5 -12 6 10 9 21 6 23 -2 3 -7 -2 -11
-11z M14463 2853 c15 -2 37 -2 50 0 12 2 0 4 -28 4 -27 0 -38 -2 -22 -4z
M15068 2853 c6 -2 18 -2 25 0 6 3 1 5 -13 5 -14 0 -19 -2 -12 -5z M15298 2853
c6 -2 18 -2 25 0 6 3 1 5 -13 5 -14 0 -19 -2 -12 -5z M15963 2853 c9 -2 23 -2
30 0 6 3 -1 5 -18 5 -16 0 -22 -2 -12 -5z M16418 2853 c17 -2 47 -2 65 0 17 2
3 4 -33 4 -36 0 -50 -2 -32 -4z M16693 2853 c9 -2 23 -2 30 0 6 3 -1 5 -18 5
-16 0 -22 -2 -12 -5z M17586 2845 c4 -8 8 -15 10 -15 2 0 4 7 4 15 0 8 -4 15
-10 15 -5 0 -7 -7 -4 -15z M7930 2840 c-11 -8 -7 -9 15 -4 37 8 45 14 19 14
-10 0 -26 -5 -34 -10z M8775 2840 c27 -12 43 -12 25 0 -8 5 -22 9 -30 9 -10 0
-8 -3 5 -9z M16741 2846 c10 -9 69 -36 69 -32 0 6 -55 36 -66 36 -4 0 -5 -2
-3 -4z M10151 2836 c2 -2 15 -9 29 -15 24 -11 24 -11 6 3 -16 13 -49 24 -35
12z M7868 2814 c-39 -21 -35 -28 5 -8 37 19 44 24 31 24 -5 -1 -21 -8 -36 -16z
M9233 2810 c-46 -27 -41 -34 5 -8 46 27 48 28 36 28 -5 0 -24 -9 -41 -20z
M11799 2803 l-24 -28 28 24 c15 14 27 26 27 28 0 8 -8 1 -31 -24z M15828 2814
c-39 -21 -35 -28 5 -8 37 19 44 24 31 24 -5 -1 -21 -8 -36 -16z M8860 2795
c13 -14 26 -25 28 -25 3 0 -5 11 -18 25 -13 14 -26 25 -28 25 -3 0 5 -11 18
-25z M11279 2793 l-24 -28 28 24 c15 14 27 26 27 28 0 8 -8 1 -31 -24z M15430
2795 c13 -14 26 -25 28 -25 3 0 -5 11 -18 25 -13 14 -26 25 -28 25 -3 0 5 -11
18 -25z M7785 2748 l-40 -43 43 40 c39 36 47 45 39 45 -2 0 -21 -19 -42 -42z
M15745 2748 l-40 -43 43 40 c23 21 42 40 42 42 0 8 -9 0 -45 -39z M9159 2753
l-24 -28 28 24 c25 23 32 31 24 31 -2 0 -14 -12 -28 -27z M11224 2728 l-19
-23 23 19 c21 18 27 26 19 26 -2 0 -12 -10 -23 -22z M8913 2670 c0 -25 2 -35
4 -22 2 12 2 32 0 45 -2 12 -4 2 -4 -23z M11694 2678 l-29 -33 33 29 c30 28
37 36 29 36 -2 0 -16 -15 -33 -32z M11159 2653 l-24 -28 28 24 c15 14 27 26
27 28 0 8 -8 1 -31 -24z M14256 2645 c-9 -26 -7 -32 5 -12 6 10 9 21 6 23 -2
3 -7 -2 -11 -11z M15468 2635 c-4 -16 -9 -39 -12 -50 -4 -11 1 -5 9 14 9 18
14 41 13 50 -2 9 -7 3 -10 -14z M11634 2608 l-19 -23 23 19 c21 18 27 26 19
26 -2 0 -12 -10 -23 -22z M14116 2604 c-3 -9 -4 -19 -1 -22 3 -3 5 1 5 9 0 11
2 11 10 -1 5 -8 10 -10 10 -5 0 6 -4 16 -9 23 -6 11 -10 10 -15 -4z M11089
2573 l-34 -38 38 34 c34 33 42 41 34 41 -2 0 -19 -17 -38 -37z M13930 2530
l-165 -6 162 -2 c99 -1 164 2 168 8 3 6 5 9 3 8 -2 -1 -77 -5 -168 -8z M6706
2503 c-7 -16 -21 -48 -29 -73 -9 -25 -31 -87 -50 -137 l-35 -93 77 -1 c42 -1
96 -2 121 -3 62 -2 95 10 109 41 32 69 101 275 96 283 -4 6 -65 10 -140 10
l-134 0 -15 -27z M8144 2511 c-26 -16 -38 -38 -76 -143 -67 -183 -66 -166 -16
-173 24 -3 90 -5 147 -3 l104 3 57 155 c40 108 54 159 47 168 -6 8 -44 12
-121 12 -91 0 -116 -3 -142 -19z M9583 2523 c37 -2 96 -2 130 0 34 2 4 3 -68
3 -71 0 -99 -1 -62 -3z M12438 2523 c78 -2 206 -2 285 0 78 1 14 3 -143 3
-157 0 -221 -2 -142 -3z M13040 2523 c133 -7 280 -7 280 0 0 4 -75 6 -167 5
-93 -1 -143 -3 -113 -5z M14676 2498 c-45 -111 -108 -289 -104 -294 3 -3 64
-6 136 -7 92 -1 134 2 145 11 20 17 120 289 113 307 -4 12 -32 15 -141 15
l-136 0 -13 -32z M15426 2515 c-9 -26 -7 -32 5 -12 6 10 9 21 6 23 -2 3 -7 -2
-11 -11z M16103 2510 c-39 -23 -41 -27 -93 -174 -23 -65 -44 -124 -47 -132 -4
-12 19 -14 148 -12 l152 3 59 159 c47 125 57 161 46 167 -7 5 -62 9 -123 9
-91 0 -115 -3 -142 -20z M11019 2493 l-24 -28 28 24 c15 14 27 26 27 28 0 8
-8 1 -31 -24z M9653 2503 c15 -2 37 -2 50 0 12 2 0 4 -28 4 -27 0 -38 -2 -22
-4z M11524 2478 l-19 -23 23 19 c21 18 27 26 19 26 -2 0 -12 -10 -23 -22z
M11810 2495 c0 -5 5 -17 10 -25 5 -8 10 -10 10 -5 0 6 -5 17 -10 25 -5 8 -10
11 -10 5z M13746 2465 c-9 -26 -7 -32 5 -12 6 10 9 21 6 23 -2 3 -7 -2 -11
-11z M11800 2465 c0 -5 5 -17 10 -25 5 -8 10 -10 10 -5 0 6 -5 17 -10 25 -5 8
-10 11 -10 5z M18066 2455 c-9 -26 -7 -32 5 -12 6 10 9 21 6 23 -2 3 -7 -2
-11 -11z M10964 2428 l-29 -33 33 29 c30 28 37 36 29 36 -2 0 -16 -15 -33 -32z
M15396 2435 c-9 -26 -7 -32 5 -12 6 10 9 21 6 23 -2 3 -7 -2 -11 -11z M10206
2425 c-3 -9 -6 -22 -5 -28 0 -7 5 -1 10 12 5 13 8 26 5 28 -2 2 -6 -3 -10 -12z
M11464 2408 l-19 -23 23 19 c21 18 27 26 19 26 -2 0 -12 -10 -23 -22z M3913
2360 c0 -36 2 -50 4 -32 2 17 2 47 0 65 -2 17 -4 3 -4 -33z M10894 2348 l-29
-33 33 29 c30 28 37 36 29 36 -2 0 -16 -15 -33 -32z M11419 2353 l-24 -28 28
24 c15 14 27 26 27 28 0 8 -8 1 -31 -24z M12236 2355 c-9 -26 -7 -32 5 -12 6
10 9 21 6 23 -2 3 -7 -2 -11 -11z M13706 2355 c-9 -26 -7 -32 5 -12 6 10 9 21
6 23 -2 3 -7 -2 -11 -11z M15366 2355 c-9 -26 -7 -32 5 -12 6 10 9 21 6 23 -2
3 -7 -2 -11 -11z M8976 2345 c-9 -26 -7 -32 5 -12 6 10 9 21 6 23 -2 3 -7 -2
-11 -11z M17406 2335 c-9 -26 -7 -32 5 -12 6 10 9 21 6 23 -2 3 -7 -2 -11 -11z
M13691 2313 c-1 -6 -4 -20 -7 -30 -5 -17 -5 -17 6 0 6 10 9 23 6 30 -3 9 -5 9
-5 0z M18011 2303 c-1 -6 -4 -20 -7 -30 -5 -17 -5 -17 6 0 6 10 9 23 6 30 -3
9 -5 9 -5 0z M10840 2285 c-7 -8 -16 -13 -20 -10 -6 4 -23 -36 -17 -41 1 0 15
14 30 33 16 18 27 33 24 33 -2 0 -10 -7 -17 -15z M11354 2278 l-19 -23 23 19
c21 18 27 26 19 26 -2 0 -12 -10 -23 -22z M14126 2275 c-9 -26 -7 -32 5 -12 6
10 9 21 6 23 -2 3 -7 -2 -11 -11z M9448 2273 c6 -2 18 -2 25 0 6 3 1 5 -13 5
-14 0 -19 -2 -12 -5z M17376 2255 c-9 -26 -7 -32 5 -12 6 10 9 21 6 23 -2 3
-7 -2 -11 -11z M13666 2245 c-9 -26 -7 -32 5 -12 6 10 9 21 6 23 -2 3 -7 -2
-11 -11z M8936 2235 c-9 -26 -7 -32 5 -12 6 10 9 21 6 23 -2 3 -7 -2 -11 -11z
M14111 2233 c-1 -6 -4 -20 -7 -30 -5 -17 -5 -17 6 0 6 10 9 23 6 30 -3 9 -5 9
-5 0z M9818 2203 c6 -2 18 -2 25 0 6 3 1 5 -13 5 -14 0 -19 -2 -12 -5z M12180
2198 c0 -4 81 -8 180 -10 98 -2 176 0 172 4 -9 9 -352 15 -352 6z M9893 2193
c9 -2 23 -2 30 0 6 3 -1 5 -18 5 -16 0 -22 -2 -12 -5z M9983 2183 c9 -2 23 -2
30 0 6 3 -1 5 -18 5 -16 0 -22 -2 -12 -5z M17966 2175 c-9 -26 -7 -32 5 -12 6
10 9 21 6 23 -2 3 -7 -2 -11 -11z M10048 2173 c12 -2 32 -2 45 0 12 2 2 4 -23
4 -25 0 -35 -2 -22 -4z M15287 2147 l-17 -32 20 24 c17 20 26 41 18 41 -2 0
-11 -15 -21 -33z M17336 2145 c-9 -26 -7 -32 5 -12 6 10 9 21 6 23 -2 3 -7 -2
-11 -11z M13626 2135 c-9 -26 -7 -32 5 -12 6 10 9 21 6 23 -2 3 -7 -2 -11 -11z
M8896 2125 c-9 -26 -7 -32 5 -12 6 10 9 21 6 23 -2 3 -7 -2 -11 -11z M10082
2083 c-15 -48 -8 -55 8 -8 7 20 10 38 8 41 -3 2 -10 -13 -16 -33z M14066 2105
c-9 -26 -7 -32 5 -12 6 10 9 21 6 23 -2 3 -7 -2 -11 -11z M17311 2079 c-6 -18
-9 -34 -7 -36 2 -2 9 10 15 28 6 18 9 34 7 36 -2 2 -9 -10 -15 -28z M11184
2078 l-19 -23 23 19 c21 18 27 26 19 26 -2 0 -12 -10 -23 -22z M8706 2065 c-9
-26 -7 -32 5 -12 6 10 9 21 6 23 -2 3 -7 -2 -11 -11z M17926 2065 c-9 -26 -7
-32 5 -12 6 10 9 21 6 23 -2 3 -7 -2 -11 -11z M13586 2025 c-9 -26 -7 -32 5
-12 6 10 9 21 6 23 -2 3 -7 -2 -11 -11z M8856 2015 c-9 -26 -7 -32 5 -12 6 10
9 21 6 23 -2 3 -7 -2 -11 -11z M17906 2015 c-9 -26 -7 -32 5 -12 6 10 9 21 6
23 -2 3 -7 -2 -11 -11z M14026 1995 c-9 -26 -7 -32 5 -12 6 10 9 21 6 23 -2 3
-7 -2 -11 -11z M17891 1973 c-1 -6 -4 -20 -7 -30 -5 -17 -5 -17 6 0 6 10 9 23
6 30 -3 9 -5 9 -5 0z M8877 1963 c18 -2 50 -2 70 0 21 2 7 4 -32 4 -38 0 -55
-2 -38 -4z M10031 1939 c-6 -18 -9 -34 -7 -36 2 -2 9 10 15 28 6 18 9 34 7 36
-2 2 -9 -10 -15 -28z M17266 1955 c-9 -26 -7 -32 5 -12 6 10 9 21 6 23 -2 3
-7 -2 -11 -11z M9058 1953 c6 -2 18 -2 25 0 6 3 1 5 -13 5 -14 0 -19 -2 -12
-5z M13556 1945 c-9 -26 -7 -32 5 -12 6 10 9 21 6 23 -2 3 -7 -2 -11 -11z
M9123 1943 c9 -2 23 -2 30 0 6 3 -1 5 -18 5 -16 0 -22 -2 -12 -5z M15193 1895
c0 -22 2 -30 4 -17 2 12 2 30 0 40 -3 9 -5 -1 -4 -23z M9328 1913 c6 -2 18 -2
25 0 6 3 1 5 -13 5 -14 0 -19 -2 -12 -5z M9398 1903 c6 -2 18 -2 25 0 6 3 1 5
-13 5 -14 0 -19 -2 -12 -5z M9463 1893 c9 -2 23 -2 30 0 6 3 -1 5 -18 5 -16 0
-22 -2 -12 -5z M6477 1883 c-7 -12 -147 -398 -147 -406 0 -11 259 -8 279 2 21
12 156 373 148 396 -5 12 -29 15 -141 15 -74 0 -137 -3 -139 -7z M9536 1883
c5 -5 12 -12 16 -18 4 -6 8 -2 8 8 0 9 -7 17 -17 17 -9 0 -12 -3 -7 -7z
M14380 1693 c-40 -109 -75 -204 -77 -210 -4 -10 27 -13 134 -13 96 0 144 4
155 13 21 16 152 372 145 392 -5 12 -30 15 -145 15 l-139 0 -73 -197z M17856
1875 c-9 -26 -7 -32 5 -12 6 10 9 21 6 23 -2 3 -7 -2 -11 -11z M9996 1845 c-9
-26 -7 -32 5 -12 6 10 9 21 6 23 -2 3 -7 -2 -11 -11z M16126 1835 c-9 -26 -7
-32 5 -12 6 10 9 21 6 23 -2 3 -7 -2 -11 -11z M10672 1810 c0 -14 2 -19 5 -12
2 6 2 18 0 25 -3 6 -5 1 -5 -13z M13506 1805 c-9 -26 -7 -32 5 -12 6 10 9 21
6 23 -2 3 -7 -2 -11 -11z M17826 1795 c-9 -26 -7 -32 5 -12 6 10 9 21 6 23 -2
3 -7 -2 -11 -11z M16101 1769 c-6 -18 -9 -34 -7 -36 2 -2 9 10 15 28 6 18 9
34 7 36 -2 2 -9 -10 -15 -28z M12026 1775 c-9 -26 -7 -32 5 -12 6 10 9 21 6
23 -2 3 -7 -2 -11 -11z M15806 1775 c-9 -26 -7 -32 5 -12 6 10 9 21 6 23 -2 3
-7 -2 -11 -11z M17196 1765 c-9 -26 -7 -32 5 -12 6 10 9 21 6 23 -2 3 -7 -2
-11 -11z M10692 1710 c0 -14 2 -19 5 -12 2 6 2 18 0 25 -3 6 -5 1 -5 -13z
M17796 1715 c-9 -26 -7 -32 5 -12 6 10 9 21 6 23 -2 3 -7 -2 -11 -11z M9946
1705 c-9 -26 -7 -32 5 -12 6 10 9 21 6 23 -2 3 -7 -2 -11 -11z M8737 1703 c-3
-5 54 -7 126 -5 247 4 272 8 75 10 -108 1 -199 -1 -201 -5z M13461 1679 c-6
-18 -9 -34 -7 -36 2 -2 9 10 15 28 6 18 9 34 7 36 -2 2 -9 -10 -15 -28z
M10116 1683 c-4 -11 -3 -28 0 -38 7 -16 8 -16 16 4 4 13 4 30 -1 39 -7 13 -9
12 -15 -5z M16066 1675 c-9 -26 -7 -32 5 -12 6 10 9 21 6 23 -2 3 -7 -2 -11
-11z M10702 1655 c0 -16 2 -22 5 -12 2 9 2 23 0 30 -3 6 -5 -1 -5 -18z M8080
1655 c0 -5 5 -17 10 -25 5 -8 10 -10 10 -5 0 6 -5 17 -10 25 -5 8 -10 11 -10
5z M17151 1643 c-1 -6 -4 -20 -7 -30 -5 -17 -5 -17 6 0 6 10 9 23 6 30 -3 9
-5 9 -5 0z M17766 1635 c-9 -26 -7 -32 5 -12 6 10 9 21 6 23 -2 3 -7 -2 -11
-11z M9916 1625 c-9 -26 -7 -32 5 -12 6 10 9 21 6 23 -2 3 -7 -2 -11 -11z
M16041 1609 c-6 -18 -9 -34 -7 -36 2 -2 9 10 15 28 6 18 9 34 7 36 -2 2 -9
-10 -15 -28z M7326 1605 c-9 -26 -7 -32 5 -12 6 10 9 21 6 23 -2 3 -7 -2 -11
-11z M8531 1579 c-13 -39 -14 -49 -1 -29 9 13 10 13 10 0 0 -13 1 -13 10 0 13
20 12 39 -1 20 -8 -12 -9 -9 -5 13 8 37 1 34 -13 -4z M8691 1603 c-1 -6 -4
-20 -7 -30 -5 -17 -5 -17 6 0 6 10 9 23 6 30 -3 9 -5 9 -5 0z M9901 1583 c-1
-6 -4 -20 -7 -30 -5 -17 -5 -17 6 0 6 10 9 23 6 30 -3 9 -5 9 -5 0z M9436
1565 c-9 -26 -7 -32 5 -12 6 10 9 21 6 23 -2 3 -7 -2 -11 -11z M16016 1545
c-9 -26 -7 -32 5 -12 6 10 9 21 6 23 -2 3 -7 -2 -11 -11z M17116 1545 c-9 -26
-7 -32 5 -12 6 10 9 21 6 23 -2 3 -7 -2 -11 -11z M8661 1519 c-6 -18 -9 -34
-7 -36 2 -2 9 10 15 28 6 18 9 34 7 36 -2 2 -9 -10 -15 -28z M13406 1535 c-9
-26 -7 -32 5 -12 6 10 9 21 6 23 -2 3 -7 -2 -11 -11z M15711 1509 c-6 -18 -9
-34 -7 -36 2 -2 9 10 15 28 6 18 9 34 7 36 -2 2 -9 -10 -15 -28z M17726 1525
c-9 -26 -7 -32 5 -12 6 10 9 21 6 23 -2 3 -7 -2 -11 -11z M10732 1490 c0 -14
2 -19 5 -12 2 6 2 18 0 25 -3 6 -5 1 -5 -13z M11926 1494 c-3 -9 -6 -17 -6
-20 0 -2 123 -5 274 -6 151 -2 272 0 269 5 -2 4 -123 7 -268 7 -231 0 -264 2
-259 15 4 8 4 15 1 15 -3 0 -8 -7 -11 -16z M9113 1490 c2 -8 16 -16 33 -17 25
-1 26 0 4 4 -14 3 -29 10 -33 17 -6 7 -7 6 -4 -4z M17148 1493 c18 -2 45 -2
60 0 15 2 0 4 -33 4 -33 0 -45 -2 -27 -4z M17706 1475 c-9 -26 -7 -32 5 -12 6
10 9 21 6 23 -2 3 -7 -2 -11 -11z M15986 1465 c-9 -26 -7 -32 5 -12 6 10 9 21
6 23 -2 3 -7 -2 -11 -11z M17328 1473 l243 -3 -6 -23 c-5 -17 -4 -19 4 -7 27
39 20 40 -236 38 l-248 -3 243 -2z M18288 1473 c67 -2 177 -2 245 0 67 1 12 3
-123 3 -135 0 -190 -2 -122 -3z M10742 1440 c0 -14 2 -19 5 -12 2 6 2 18 0 25
-3 6 -5 1 -5 -13z M15956 1385 c-9 -26 -7 -32 5 -12 6 10 9 21 6 23 -2 3 -7
-2 -11 -11z M10762 1340 c0 -14 2 -19 5 -12 2 6 2 18 0 25 -3 6 -5 1 -5 -13z
M14991 1323 c-10 -26 -10 -27 4 -9 8 11 15 23 15 28 0 15 -7 8 -19 -19z
M15160 1325 c0 -5 5 -17 10 -25 5 -8 10 -10 10 -5 0 6 -5 17 -10 25 -5 8 -10
11 -10 5z M17641 1299 c-6 -18 -9 -34 -7 -36 2 -2 9 10 15 28 6 18 9 34 7 36
-2 2 -9 -10 -15 -28z M10772 1280 c0 -14 2 -19 5 -12 2 6 2 18 0 25 -3 6 -5 1
-5 -13z M2 1260 c0 -19 2 -27 5 -17 2 9 2 25 0 35 -3 9 -5 1 -5 -18z M14924
1228 l-29 -33 33 29 c30 28 37 36 29 36 -2 0 -16 -15 -33 -32z M10782 1225 c0
-16 2 -22 5 -12 2 9 2 23 0 30 -3 6 -5 -1 -5 -18z M6975 1230 c-4 -6 -11 -7
-17 -4 -7 4 -8 2 -4 -5 6 -9 11 -9 22 0 14 11 18 19 10 19 -3 0 -8 -5 -11 -10z
M18556 1225 c-9 -26 -7 -32 5 -12 6 10 9 21 6 23 -2 3 -7 -2 -11 -11z M7166
1185 c-9 -26 -7 -32 5 -12 6 10 9 21 6 23 -2 3 -7 -2 -11 -11z M8386 1185 c-9
-26 -7 -32 5 -12 6 10 9 21 6 23 -2 3 -7 -2 -11 -11z M10792 1170 c0 -14 2
-19 5 -12 2 6 2 18 0 25 -3 6 -5 1 -5 -13z M15876 1164 c-3 -9 -6 -20 -6 -25
0 -5 99 -9 235 -9 129 0 235 3 235 8 0 4 -104 6 -231 4 -228 -3 -231 -2 -224
18 7 24 0 27 -9 4z M4750 1150 c-6 -11 -8 -20 -6 -20 3 0 10 9 16 20 6 11 8
20 6 20 -3 0 -10 -9 -16 -20z M10410 1151 c0 -9 -57 -11 -235 -9 -129 2 -235
0 -235 -4 0 -13 468 -10 475 3 4 6 4 13 1 16 -3 4 -6 1 -6 -6z M11340 1148 c0
-17 30 -18 508 -16 l507 3 -499 2 c-385 3 -502 6 -508 16 -5 8 -8 7 -8 -5z
M13720 1148 c0 -17 30 -18 513 -16 l512 3 -504 2 c-389 3 -507 6 -513 16 -5 8
-8 7 -8 -5z M7157 1138 c2 -5 107 -8 233 -8 126 0 231 3 233 8 3 4 -102 7
-233 7 -131 0 -236 -3 -233 -7z M7910 1138 c0 -5 103 -8 229 -8 127 0 232 3
234 8 3 4 -100 7 -229 7 -129 0 -234 -3 -234 -7z M15350 1140 l-235 -6 232 -2
c146 -1 234 2 238 8 3 6 5 9 3 8 -2 -1 -109 -5 -238 -8z M16510 1138 c0 -5
214 -8 475 -8 261 0 475 3 475 8 0 4 -214 7 -475 7 -261 0 -475 -3 -475 -7z
M6003 1133 c141 -2 373 -2 515 0 141 1 25 2 -258 2 -283 0 -399 -1 -257 -2z
M9018 1133 c101 -2 263 -2 360 0 97 1 15 2 -183 2 -198 0 -278 -1 -177 -2z
M10913 1133 c64 -2 170 -2 235 0 64 1 11 3 -118 3 -129 0 -182 -2 -117 -3z
M12918 1133 c68 -2 176 -2 240 0 64 1 9 3 -123 3 -132 0 -185 -2 -117 -3z
M17823 1133 c130 -2 344 -2 475 0 130 1 23 2 -238 2 -261 0 -368 -1 -237 -2z
M2 1100 c0 -19 2 -27 5 -17 2 9 2 25 0 35 -3 9 -5 1 -5 -18z M16993 1113 c15
-2 37 -2 50 0 12 2 0 4 -28 4 -27 0 -38 -2 -22 -4z M4664 1018 c-4 -7 -14 -24
-22 -38 -14 -24 -13 -24 3 -5 20 24 37 55 31 55 -3 0 -8 -6 -12 -12z M4534
818 c-4 -7 -14 -24 -22 -38 -14 -24 -13 -24 3 -5 20 24 37 55 31 55 -3 0 -8
-6 -12 -12z M8443 813 c1902 -2 5012 -2 6910 0 1899 1 343 2 -3458 2 -3801 0
-5354 -1 -3452 -2z M4400 610 c-6 -11 -8 -20 -6 -20 3 0 10 9 16 20 6 11 8 20
6 20 -3 0 -10 -9 -16 -20z M4804 568 l-19 -23 23 19 c21 18 27 26 19 26 -2 0
-12 -10 -23 -22z M1102 543 c262 -2 694 -2 960 0 266 1 51 2 -477 2 -528 0
-745 -1 -483 -2z M4340 520 c-6 -11 -8 -20 -6 -20 3 0 10 9 16 20 6 11 8 20 6
20 -3 0 -10 -9 -16 -20z M4780 528 c0 -5 69 -7 153 -6 154 2 136 6 -51 10 -56
2 -102 0 -102 -4z M5153 523 c31 -2 83 -2 115 0 31 2 5 3 -58 3 -63 0 -89 -1
-57 -3z M5493 523 c81 -2 213 -2 295 0 81 1 14 3 -148 3 -162 0 -229 -2 -147
-3z M6108 523 c94 -2 250 -2 345 0 94 1 17 3 -173 3 -190 0 -267 -2 -172 -3z
M6938 523 c171 -2 453 -2 625 0 171 1 31 2 -313 2 -344 0 -484 -1 -312 -2z
M8173 523 c104 -2 270 -2 370 0 100 1 16 2 -188 2 -203 0 -285 -1 -182 -2z
M9068 523 c189 -2 495 -2 680 0 185 1 31 2 -343 2 -374 0 -526 -1 -337 -2z
M10537 523 c248 -2 658 -2 910 0 252 1 49 2 -452 2 -500 0 -707 -1 -458 -2z
M12038 523 c18 -2 45 -2 60 0 15 2 0 4 -33 4 -33 0 -45 -2 -27 -4z M12278 523
c83 -2 221 -2 305 0 83 1 15 3 -153 3 -168 0 -236 -2 -152 -3z M12913 523 c53
-2 141 -2 195 0 53 1 9 3 -98 3 -107 0 -151 -2 -97 -3z M13433 523 c9 -2 25
-2 35 0 9 3 1 5 -18 5 -19 0 -27 -2 -17 -5z M13963 523 c262 -2 692 -2 955 0
262 1 47 2 -478 2 -525 0 -740 -1 -477 -2z M15643 523 c103 -2 271 -2 375 0
103 1 18 2 -188 2 -206 0 -291 -1 -187 -2z M16528 523 c178 -2 466 -2 640 0
174 1 29 2 -323 2 -352 0 -495 -1 -317 -2z M17783 523 c120 -2 314 -2 430 0
117 1 19 2 -218 2 -236 0 -332 -1 -212 -2z M2542 430 c0 -19 2 -27 5 -17 2 9
2 25 0 35 -3 9 -5 1 -5 -18z M2553 285 c0 -22 2 -30 4 -17 2 12 2 30 0 40 -3
9 -5 -1 -4 -23z M2563 140 c0 -25 2 -35 4 -22 2 12 2 32 0 45 -2 12 -4 2 -4
-23z M2570 17 c0 -10 8 -17 18 -17 9 0 13 4 7 8 -5 4 -13 11 -17 16 -5 5 -8 2
-8 -7z M2688 3 c12 -2 32 -2 45 0 12 2 2 4 -23 4 -25 0 -35 -2 -22 -4z M2798
3 c12 -2 32 -2 45 0 12 2 2 4 -23 4 -25 0 -35 -2 -22 -4z M2893 3 c9 -2 25 -2
35 0 9 3 1 5 -18 5 -19 0 -27 -2 -17 -5z M3003 3 c9 -2 25 -2 35 0 9 3 1 5
-18 5 -19 0 -27 -2 -17 -5z M3123 3 c9 -2 25 -2 35 0 9 3 1 5 -18 5 -19 0 -27
-2 -17 -5z M3228 3 c6 -2 18 -2 25 0 6 3 1 5 -13 5 -14 0 -19 -2 -12 -5z
M3338 3 c12 -2 32 -2 45 0 12 2 2 4 -23 4 -25 0 -35 -2 -22 -4z M3473 3 c15
-2 37 -2 50 0 12 2 0 4 -28 4 -27 0 -38 -2 -22 -4z M3588 3 c12 -2 32 -2 45 0
12 2 2 4 -23 4 -25 0 -35 -2 -22 -4z M3718 3 c12 -2 32 -2 45 0 12 2 2 4 -23
4 -25 0 -35 -2 -22 -4z M3808 3 c6 -2 18 -2 25 0 6 3 1 5 -13 5 -14 0 -19 -2
-12 -5z M3863 3 c9 -2 23 -2 30 0 6 3 -1 5 -18 5 -16 0 -22 -2 -12 -5z M3958
3 c6 -2 18 -2 25 0 6 3 1 5 -13 5 -14 0 -19 -2 -12 -5z"/>
</g>
</svg>
