<svg xmlns="http://www.w3.org/2000/svg" width="1080" height="1080" viewBox="0 0 1080 1080" preserveAspectRatio="xMidYMid meet">
<g transform="translate(0.000000,1080.000000) scale(0.100000,-0.100000)"
fill="#021F51" stroke="none">
<path d="M5120 10790 c-721 -45 -1402 -224 -2035 -535 -257 -127 -389 -202
-610 -350 -321 -215 -581 -431 -865 -721 -495 -506 -869 -1068 -1138 -1710
-108 -258 -210 -573 -282 -869 -232 -965 -191 -1941 122 -2895 197 -603 502
-1164 907 -1670 142 -178 179 -218 385 -428 335 -341 623 -567 1081 -849 70
-43 252 -142 370 -201 759 -378 1636 -572 2487 -548 454 13 949 91 1343 212
66 20 135 41 154 46 19 5 93 31 165 58 971 355 1854 1010 2463 1825 325 435
568 881 752 1380 293 794 391 1622 290 2465 -110 925 -438 1782 -968 2530
-573 810 -1385 1473 -2256 1843 -532 226 -1098 366 -1644 407 -202 15 -558 20
-721 10z m1610 -1124 c0 -2 -50 -149 -111 -327 -61 -178 -156 -457 -210 -619
-55 -162 -122 -358 -149 -435 -26 -77 -51 -150 -55 -162 l-6 -23 382 0 382 0
-7 -270 c-4 -148 -5 -270 -3 -270 2 0 39 57 82 128 83 138 171 280 455 735
l185 297 660 0 c376 0 698 -4 747 -10 106 -12 166 -31 233 -73 l50 -32 -814
-5 -814 -5 -261 -420 c-341 -548 -564 -906 -607 -977 -37 -62 -48 -71 -43 -35
2 12 5 201 8 420 l5 397 -398 0 c-219 0 -400 2 -403 5 -3 3 7 41 23 83 15 42
73 210 128 372 55 162 161 475 235 694 75 220 136 401 136 403 0 2 -609 2
-1352 0 -1470 -3 -1373 0 -1548 -57 -306 -101 -586 -356 -730 -663 -22 -47
-185 -517 -361 -1044 -176 -527 -386 -1151 -465 -1388 -171 -509 -186 -565
-186 -700 -1 -128 21 -229 72 -332 116 -236 344 -387 635 -422 59 -7 457 -11
1145 -11 580 0 1112 0 1183 0 l127 0 0 -54 0 -55 -1192 1 c-698 0 -1234 4
-1292 10 -122 12 -234 46 -349 106 -243 127 -394 336 -438 607 -15 98 -6 287
19 380 32 115 936 2812 982 2925 83 209 279 447 482 588 189 130 432 218 648
235 60 5 2790 8 2790 3z m-490 -362 c0 -3 -97 -287 -216 -632 -119 -345 -220
-642 -225 -659 l-10 -33 -574 0 c-461 0 -575 3 -575 13 0 7 27 93 60 192 33
99 60 185 60 192 0 10 -51 13 -240 13 -225 0 -240 -1 -250 -19 -22 -42 -750
-2220 -750 -2245 0 -15 29 -16 268 -14 l267 3 127 380 c70 209 127 386 127
393 1 9 -35 12 -149 12 -87 0 -150 4 -150 9 0 10 216 665 252 764 l20 57 1150
0 1150 0 -6 -267 c-3 -148 -8 -356 -11 -463 -12 -487 -17 -805 -13 -800 3 3
54 86 113 185 202 336 858 1404 1120 1823 l89 142 664 0 c528 0 662 -3 656
-12 -8 -13 -183 -284 -482 -748 -148 -229 -517 -807 -918 -1435 -123 -192
-366 -574 -541 -849 l-318 -499 -114 -28 c-63 -16 -116 -28 -117 -26 -2 2 274
438 917 1447 125 195 289 454 366 575 77 121 222 348 323 505 101 157 253 395
338 530 85 135 172 271 193 302 22 31 35 59 30 62 -5 3 -210 5 -457 3 l-448
-2 -38 -56 c-99 -150 -717 -1158 -1160 -1894 -160 -264 -301 -490 -315 -503
-17 -16 -32 -21 -46 -16 -49 14 -49 13 -43 419 10 620 16 946 22 1198 l6 237
-995 0 -995 0 -78 -232 c-42 -128 -79 -239 -82 -245 -3 -10 30 -13 147 -13
137 0 151 -2 150 -17 0 -10 -82 -261 -182 -558 l-182 -540 -410 -3 c-462 -3
-451 -4 -449 65 1 45 797 2435 823 2473 10 14 33 33 52 42 31 16 72 18 417 18
252 0 382 -3 382 -10 0 -6 -27 -92 -60 -192 -33 -100 -58 -183 -56 -186 9 -8
788 -4 795 4 5 5 38 97 74 204 36 107 108 320 160 473 l96 277 -1053 0 c-1195
0 -1120 5 -1301 -84 -149 -74 -265 -195 -339 -358 -19 -40 -243 -701 -497
-1468 l-464 -1395 0 -105 c0 -94 3 -111 28 -161 30 -63 103 -136 165 -168 100
-51 89 -51 1233 -51 l1066 0 26 73 c47 132 184 536 332 982 124 370 152 444
176 468 43 40 100 32 119 -18 6 -17 16 -1825 11 -1992 -1 -22 -5 -23 -86 -23
l-85 0 0 702 c0 414 -4 698 -9 692 -7 -7 -155 -430 -337 -964 l-29 -85 -1150
0 c-1271 0 -1195 -4 -1343 67 -145 69 -252 200 -282 345 -7 32 -10 101 -8 157
l4 101 472 1420 c259 781 487 1453 506 1492 115 240 311 416 565 507 153 55
134 54 1374 55 631 1 1147 -1 1147 -5z m3059 -1310 c-273 -577 -359 -727 -899
-1574 -194 -304 -1013 -1586 -1016 -1589 -4 -5 -127 -2 -132 3 -2 2 111 183
251 402 139 220 338 532 442 694 248 389 315 495 434 680 55 85 139 216 186
290 47 74 108 169 135 210 27 41 77 120 111 175 35 55 95 150 135 210 39 61
128 198 196 305 189 296 211 330 215 326 2 -1 -24 -61 -58 -132z m-5549 -3445
c236 -32 508 -142 684 -276 96 -73 117 -96 101 -112 -6 -6 -79 -24 -162 -40
-576 -115 -1175 -377 -1518 -665 -84 -71 -79 -76 -72 75 13 266 75 547 176
802 45 113 68 155 95 172 78 51 464 75 696 44z m3863 -9 c59 -10 119 -26 133
-35 69 -45 193 -416 244 -725 21 -132 38 -380 26 -380 -4 0 -33 22 -64 49
-332 286 -942 554 -1537 676 -71 15 -137 34 -145 42 -13 13 -10 20 33 58 149
136 447 272 692 315 175 31 437 31 618 0z m-2365 8 c18 -18 17 -292 -2 -307
-13 -11 -212 -30 -315 -31 -39 0 -48 4 -80 42 -87 101 -187 199 -251 244 -38
27 -69 52 -70 57 0 13 704 9 718 -5z m1022 5 c0 -5 -22 -22 -48 -39 -84 -56
-162 -127 -229 -212 -38 -48 -75 -85 -89 -88 -14 -4 -97 -2 -185 3 -119 7
-163 14 -170 24 -14 22 -11 293 3 307 14 14 718 18 718 5z m-1029 -613 c19
-11 19 -39 19 -1591 l0 -1581 -72 7 c-442 41 -856 186 -1213 426 -136 91 -293
213 -301 233 -7 18 89 291 156 443 187 423 418 779 836 1289 203 248 289 428
303 636 8 124 14 131 119 139 127 9 133 9 153 -1z m535 -6 c39 -6 51 -33 53
-126 2 -92 33 -206 87 -318 58 -121 96 -176 269 -390 234 -290 350 -448 482
-658 177 -282 347 -638 433 -907 l31 -100 -24 -20 c-14 -11 -56 -46 -94 -77
-110 -91 -306 -217 -458 -295 -287 -146 -610 -238 -942 -268 l-73 -6 0 1580
c0 1494 1 1581 18 1590 16 9 145 6 218 -5z m-1101 -58 c19 -14 22 -52 9 -130
-17 -105 -108 -265 -240 -421 -278 -330 -486 -622 -649 -910 -92 -161 -232
-452 -290 -600 -25 -66 -49 -128 -53 -138 -6 -14 -23 2 -87 83 -280 354 -468
763 -541 1175 l-14 79 27 39 c35 50 154 161 253 236 344 259 862 470 1415 576
146 28 147 28 170 11z m1602 -7 c380 -73 728 -187 1025 -335 242 -120 422
-244 591 -406 101 -98 100 -95 67 -259 -80 -390 -286 -820 -543 -1131 l-64
-77 -63 157 c-142 357 -360 752 -587 1066 -37 50 -146 190 -243 311 -274 343
-315 409 -345 554 -16 77 -12 116 14 131 22 13 26 13 148 -11z"/>
</g>
<g transform="translate(0.000000,1080.000000) scale(0.100000,-0.100000)"
fill="#FE5A08" stroke="none">
<path d="M3350 4559 c-136 -9 -264 -33 -296 -54 -27 -17 -50 -59 -95 -172
-101 -255 -163 -536 -176 -802 -7 -151 -12 -146 72 -75 343 288 942 550 1518
665 83 16 156 34 162 40 16 16 -5 39 -101 112 -139 106 -349 202 -549 251
-142 35 -344 48 -535 35z M7165 4559 c-55 -4 -131 -12 -170 -19 -245 -43 -543
-179 -692 -315 -43 -38 -46 -45 -33 -58 8 -8 74 -27 145 -42 595 -122 1205
-390 1537 -676 31 -27 60 -49 64 -49 12 0 -5 248 -26 380 -51 309 -175 680
-244 725 -61 40 -367 69 -581 54z M4530 4553 c1 -5 32 -30 70 -57 64 -45 164
-143 251 -244 32 -38 41 -42 80 -42 103 1 302 20 315 31 19 15 20 289 2 307
-14 14 -718 18 -718 5z M5552 4548 c-14 -14 -17 -285 -3 -307 7 -10 51 -17
170 -24 88 -5 171 -7 185 -3 14 3 51 40 89 88 67 85 145 156 229 212 26 17 48
34 48 39 0 13 -704 9 -718 -5z M5088 3941 c-105 -8 -111 -15 -119 -139 -14
-208 -100 -388 -303 -636 -418 -510 -649 -866 -836 -1289 -67 -152 -163 -425
-156 -443 8 -20 165 -142 301 -233 357 -240 771 -385 1213 -426 l72 -7 0 1581
c0 1552 0 1580 -19 1591 -20 10 -26 10 -153 1z M5558 3939 c-17 -9 -18 -96
-18 -1590 l0 -1580 73 6 c332 30 655 122 942 268 152 78 348 204 458 295 38
31 80 66 94 77 l24 20 -31 100 c-86 269 -256 625 -433 907 -132 210 -248 368
-482 658 -173 214 -211 269 -269 390 -54 112 -85 226 -87 318 -2 93 -14 120
-53 126 -73 11 -202 14 -218 5z M4505 3865 c-553 -106 -1071 -317 -1415 -576
-99 -75 -218 -186 -253 -236 l-27 -39 14 -79 c23 -128 42 -201 91 -349 98
-296 246 -568 450 -826 64 -81 81 -97 87 -83 4 10 28 72 53 138 58 148 198
439 290 600 163 288 371 580 649 910 132 156 223 316 240 421 13 78 10 116 -9
130 -23 17 -24 17 -170 -11z M6129 3880 c-26 -15 -30 -54 -14 -131 30 -145 71
-211 345 -554 97 -121 206 -261 243 -311 227 -314 445 -709 587 -1066 l63
-157 64 77 c257 311 463 741 543 1131 33 164 34 161 -67 259 -367 352 -926
608 -1616 741 -122 24 -126 24 -148 11z"/>
</g>
<g transform="translate(0.000000,1080.000000) scale(0.100000,-0.100000)"
fill="#FFFFFF" stroke="none">
<path d="M5168 10793 c17 -2 47 -2 65 0 17 2 3 4 -33 4 -36 0 -50 -2 -32 -4z
M5588 10793 c23 -2 59 -2 80 0 20 2 1 4 -43 4 -44 0 -61 -2 -37 -4z M5008
10783 c12 -2 30 -2 40 0 9 3 -1 5 -23 4 -22 0 -30 -2 -17 -4z M5783 10783 c15
-2 37 -2 50 0 12 2 0 4 -28 4 -27 0 -38 -2 -22 -4z M4883 10773 c9 -2 25 -2
35 0 9 3 1 5 -18 5 -19 0 -27 -2 -17 -5z M5923 10773 c9 -2 23 -2 30 0 6 3 -1
5 -18 5 -16 0 -22 -2 -12 -5z M6018 10763 c6 -2 18 -2 25 0 6 3 1 5 -13 5 -14
0 -19 -2 -12 -5z M4718 10753 c6 -2 18 -2 25 0 6 3 1 5 -13 5 -14 0 -19 -2
-12 -5z M6098 10753 c6 -2 18 -2 25 0 6 3 1 5 -13 5 -14 0 -19 -2 -12 -5z
M4518 10723 c6 -2 18 -2 25 0 6 3 1 5 -13 5 -14 0 -19 -2 -12 -5z M7420 10400
c8 -5 20 -10 25 -10 6 0 3 5 -5 10 -8 5 -19 10 -25 10 -5 0 -3 -5 5 -10z
M7560 10340 c8 -5 20 -10 25 -10 6 0 3 5 -5 10 -8 5 -19 10 -25 10 -5 0 -3 -5
5 -10z M3180 10310 c-8 -5 -10 -10 -5 -10 6 0 17 5 25 10 8 5 11 10 5 10 -5 0
-17 -5 -25 -10z M7700 10275 c25 -13 50 -24 55 -24 6 0 -10 11 -35 24 -25 13
-49 24 -55 24 -5 0 10 -11 35 -24z M7770 10245 c0 -2 18 -14 40 -25 22 -11 40
-18 40 -15 0 2 -18 14 -40 25 -22 11 -40 18 -40 15z M2874 10154 c-18 -14 -18
-15 4 -4 12 6 22 13 22 15 0 8 -5 6 -26 -11z M7920 10166 c0 -3 9 -10 20 -16
11 -6 20 -8 20 -6 0 3 -9 10 -20 16 -11 6 -20 8 -20 6z M2764 10094 c-18 -14
-18 -15 4 -4 12 6 22 13 22 15 0 8 -5 6 -26 -11z M8060 10086 c0 -3 9 -10 20
-16 11 -6 20 -8 20 -6 0 3 -9 10 -20 16 -11 6 -20 8 -20 6z M8140 10036 c0 -3
9 -10 20 -16 11 -6 20 -8 20 -6 0 3 -9 10 -20 16 -11 6 -20 8 -20 6z M3940
9663 c-216 -17 -459 -105 -648 -235 -203 -141 -399 -379 -482 -588 -46 -113
-950 -2810 -982 -2925 -25 -93 -34 -282 -19 -380 25 -155 86 -290 180 -403
145 -172 370 -287 607 -310 58 -6 594 -10 1292 -10 l1192 -1 0 55 0 54 -127 0
c-71 0 -603 0 -1183 0 -688 0 -1086 4 -1145 11 -291 35 -519 186 -635 422 -51
103 -73 204 -72 332 0 135 15 191 186 700 79 237 289 861 465 1388 176 527
339 997 361 1044 57 123 139 241 240 347 172 179 364 289 620 353 58 15 203
17 1418 20 743 2 1352 2 1352 0 0 -2 -61 -183 -136 -403 -74 -219 -180 -532
-235 -694 -55 -162 -113 -330 -128 -372 -16 -42 -26 -80 -23 -83 3 -3 184 -5
403 -5 l398 0 -5 -397 c-3 -219 -6 -408 -8 -420 -5 -36 6 -27 43 35 43 71 266
429 607 977 l261 420 814 5 814 5 -50 32 c-67 42 -127 61 -233 73 -49 6 -371
10 -747 10 l-660 0 -185 -297 c-284 -455 -372 -597 -455 -735 -43 -71 -80
-128 -82 -128 -2 0 -1 122 3 270 l7 270 -382 0 -382 0 6 23 c4 12 29 85 55
162 27 77 94 273 149 435 54 162 149 441 210 619 61 178 111 325 111 327 0 5
-2730 2 -2790 -3z M8745 9600 c10 -11 20 -20 23 -20 3 0 -3 9 -13 20 -10 11
-20 20 -23 20 -3 0 3 -9 13 -20z M2014 9568 l-19 -23 23 19 c21 18 27 26 19
26 -2 0 -12 -10 -23 -22z M1944 9508 l-19 -23 23 19 c21 18 27 26 19 26 -2 0
-12 -10 -23 -22z M1859 9433 l-24 -28 28 24 c25 23 32 31 24 31 -2 0 -14 -12
-28 -27z M8980 9398 c41 -45 50 -53 50 -45 0 2 -21 23 -47 47 l-48 45 45 -47z
M1650 9233 l-115 -118 118 115 c64 63 117 116 117 117 0 8 -13 -5 -120 -114z
M3869 9294 c-310 -56 -577 -260 -715 -547 -19 -39 -247 -711 -506 -1492 l-472
-1420 -4 -101 c-2 -56 1 -125 8 -157 30 -145 137 -276 282 -345 148 -71 72
-67 1343 -67 l1150 0 29 85 c182 534 330 957 337 964 5 6 9 -278 9 -692 l0
-702 85 0 c81 0 85 1 86 23 5 167 -5 1975 -11 1992 -19 50 -76 58 -119 18 -24
-24 -52 -98 -176 -468 -148 -446 -285 -850 -332 -982 l-26 -73 -1066 0 c-1144
0 -1133 0 -1233 51 -62 32 -135 105 -165 168 -25 50 -28 67 -28 161 l0 105
464 1395 c254 767 478 1428 497 1468 74 163 190 284 339 358 181 89 106 84
1301 84 l1053 0 -96 -277 c-52 -153 -124 -366 -160 -473 -36 -107 -69 -199
-74 -204 -7 -8 -786 -12 -795 -4 -2 3 23 86 56 186 33 100 60 186 60 192 0 7
-130 10 -382 10 -345 0 -386 -2 -417 -18 -19 -9 -42 -28 -52 -42 -26 -38 -822
-2428 -823 -2473 -2 -69 -13 -68 449 -65 l410 3 182 540 c100 297 182 548 182
558 1 15 -13 17 -150 17 -117 0 -150 3 -147 13 3 6 40 117 82 245 l78 232 995
0 995 0 -6 -237 c-6 -252 -12 -578 -22 -1198 -6 -406 -6 -405 43 -419 14 -5
29 0 46 16 14 13 155 239 315 503 443 736 1061 1744 1160 1894 l38 56 448 2
c247 2 452 0 457 -3 5 -3 -8 -31 -30 -62 -21 -31 -108 -167 -193 -302 -85
-135 -237 -373 -338 -530 -101 -157 -246 -384 -323 -505 -77 -121 -241 -380
-366 -575 -643 -1009 -919 -1445 -917 -1447 1 -2 54 10 117 26 l114 28 318
499 c175 275 418 657 541 849 401 628 770 1206 918 1435 299 464 474 735 482
748 6 9 -128 12 -656 12 l-664 0 -89 -142 c-262 -419 -918 -1487 -1120 -1823
-59 -99 -110 -182 -113 -185 -4 -5 1 313 13 800 3 107 8 315 11 463 l6 267
-1150 0 -1150 0 -20 -57 c-36 -99 -252 -754 -252 -764 0 -5 63 -9 150 -9 114
0 150 -3 149 -12 0 -7 -57 -184 -127 -393 l-127 -380 -267 -3 c-239 -2 -268
-1 -268 14 0 25 728 2203 750 2245 10 18 25 19 250 19 189 0 240 -3 240 -13 0
-7 -27 -93 -60 -192 -33 -99 -60 -185 -60 -192 0 -10 114 -13 575 -13 l574 0
10 33 c5 17 106 314 225 659 119 345 216 629 216 632 0 4 -516 6 -1147 5 -927
-1 -1163 -3 -1224 -15z M9285 9090 c21 -22 41 -40 44 -40 3 0 -13 18 -34 40
-21 22 -41 40 -44 40 -3 0 13 -18 34 -40z M1444 9018 l-29 -33 33 29 c30 28
37 36 29 36 -2 0 -16 -15 -33 -32z M9380 8985 c13 -14 26 -25 28 -25 3 0 -5
11 -18 25 -13 14 -26 25 -28 25 -3 0 5 -11 18 -25z M1364 8928 l-19 -23 23 19
c12 11 22 21 22 23 0 8 -8 2 -26 -19z M9445 8910 c10 -11 20 -20 23 -20 3 0
-3 9 -13 20 -10 11 -20 20 -23 20 -3 0 3 -9 13 -20z M9950 8210 c6 -11 13 -20
16 -20 2 0 0 9 -6 20 -6 11 -13 20 -16 20 -2 0 0 -9 6 -20z M810 8160 c-6 -11
-8 -20 -6 -20 3 0 10 9 16 20 6 11 8 20 6 20 -3 0 -10 -9 -16 -20z M9980 8160
c6 -11 13 -20 16 -20 2 0 0 9 -6 20 -6 11 -13 20 -16 20 -2 0 0 -9 6 -20z
M9310 8062 c-24 -37 -99 -155 -168 -262 -68 -107 -157 -244 -196 -305 -40 -60
-100 -155 -135 -210 -34 -55 -84 -134 -111 -175 -27 -41 -88 -136 -135 -210
-47 -74 -131 -205 -186 -290 -119 -185 -186 -291 -434 -680 -104 -162 -303
-474 -442 -694 -140 -219 -253 -400 -251 -402 5 -5 128 -8 132 -3 3 3 822
1285 1016 1589 453 711 586 934 730 1225 144 294 231 477 227 481 -2 2 -23
-27 -47 -64z M740 8040 c-6 -11 -8 -20 -6 -20 3 0 10 9 16 20 6 11 8 20 6 20
-3 0 -10 -9 -16 -20z M10060 8020 c6 -11 13 -20 16 -20 2 0 0 9 -6 20 -6 11
-13 20 -16 20 -2 0 0 -9 6 -20z M700 7970 c-6 -11 -8 -20 -6 -20 3 0 10 9 16
20 6 11 8 20 6 20 -3 0 -10 -9 -16 -20z M10211 7735 c0 -5 6 -21 14 -35 8 -14
14 -20 14 -15 0 6 -6 21 -14 35 -8 14 -14 21 -14 15z M552 7675 c-17 -37 -14
-45 4 -12 9 16 14 31 11 33 -2 2 -9 -7 -15 -21z M10270 7605 c0 -5 5 -17 10
-25 5 -8 10 -10 10 -5 0 6 -5 17 -10 25 -5 8 -10 11 -10 5z M496 7555 c-9 -26
-7 -32 5 -12 6 10 9 21 6 23 -2 3 -7 -2 -11 -11z M10290 7555 c0 -5 5 -17 10
-25 5 -8 10 -10 10 -5 0 6 -5 17 -10 25 -5 8 -10 11 -10 5z M476 7505 c-9 -26
-7 -32 5 -12 6 10 9 21 6 23 -2 3 -7 -2 -11 -11z M10330 7465 c0 -5 5 -17 10
-25 5 -8 10 -10 10 -5 0 6 -5 17 -10 25 -5 8 -10 11 -10 5z M446 7435 c-9 -26
-7 -32 5 -12 6 10 9 21 6 23 -2 3 -7 -2 -11 -11z M10350 7415 c0 -5 5 -17 10
-25 5 -8 10 -10 10 -5 0 6 -5 17 -10 25 -5 8 -10 11 -10 5z M10380 7335 c0 -5
5 -17 10 -25 5 -8 10 -10 10 -5 0 6 -5 17 -10 25 -5 8 -10 11 -10 5z M396
7305 c-9 -26 -7 -32 5 -12 6 10 9 21 6 23 -2 3 -7 -2 -11 -11z M376 7255 c-9
-26 -7 -32 5 -12 6 10 9 21 6 23 -2 3 -7 -2 -11 -11z M172 6550 c0 -14 2 -19
5 -12 2 6 2 18 0 25 -3 6 -5 1 -5 -13z M122 6310 c0 -14 2 -19 5 -12 2 6 2 18
0 25 -3 6 -5 1 -5 -13z M10672 6270 c0 -14 2 -19 5 -12 2 6 2 18 0 25 -3 6 -5
1 -5 -13z M10682 6210 c0 -14 2 -19 5 -12 2 6 2 18 0 25 -3 6 -5 1 -5 -13z
M10692 6140 c0 -14 2 -19 5 -12 2 6 2 18 0 25 -3 6 -5 1 -5 -13z M92 6130 c0
-14 2 -19 5 -12 2 6 2 18 0 25 -3 6 -5 1 -5 -13z M10702 6065 c0 -16 2 -22 5
-12 2 9 2 23 0 30 -3 6 -5 -1 -5 -18z M82 6060 c0 -14 2 -19 5 -12 2 6 2 18 0
25 -3 6 -5 1 -5 -13z M10712 5980 c0 -19 2 -27 5 -17 2 9 2 25 0 35 -3 9 -5 1
-5 -18z M72 5980 c0 -14 2 -19 5 -12 2 6 2 18 0 25 -3 6 -5 1 -5 -13z M62
5900 c0 -19 2 -27 5 -17 2 9 2 25 0 35 -3 9 -5 1 -5 -18z M10722 5895 c0 -16
2 -22 5 -12 2 9 2 23 0 30 -3 6 -5 -1 -5 -18z M53 5785 c0 -22 2 -30 4 -17 2
12 2 30 0 40 -3 9 -5 -1 -4 -23z M10733 5770 c0 -25 2 -35 4 -22 2 12 2 32 0
45 -2 12 -4 2 -4 -23z M43 5615 c0 -33 2 -45 4 -27 2 18 2 45 0 60 -2 15 -4 0
-4 -33z M10743 5620 c0 -30 2 -43 4 -27 2 15 2 39 0 55 -2 15 -4 2 -4 -28z
M10753 5365 c0 -27 2 -38 4 -22 2 15 2 37 0 50 -2 12 -4 0 -4 -28z M43 5125
c0 -38 2 -53 4 -32 2 20 2 52 0 70 -2 17 -4 1 -4 -38z M10743 5110 c0 -30 2
-43 4 -27 2 15 2 39 0 55 -2 15 -4 2 -4 -28z M10732 4960 c0 -19 2 -27 5 -17
2 9 2 25 0 35 -3 9 -5 1 -5 -18z M52 4950 c0 -19 2 -27 5 -17 2 9 2 25 0 35
-3 9 -5 1 -5 -18z M10722 4850 c0 -19 2 -27 5 -17 2 9 2 25 0 35 -3 9 -5 1 -5
-18z M62 4835 c0 -16 2 -22 5 -12 2 9 2 23 0 30 -3 6 -5 -1 -5 -18z M72 4755
c0 -16 2 -22 5 -12 2 9 2 23 0 30 -3 6 -5 -1 -5 -18z M10712 4750 c0 -19 2
-27 5 -17 2 9 2 25 0 35 -3 9 -5 1 -5 -18z M82 4675 c0 -16 2 -22 5 -12 2 9 2
23 0 30 -3 6 -5 -1 -5 -18z M10702 4665 c0 -16 2 -22 5 -12 2 9 2 23 0 30 -3
6 -5 -1 -5 -18z M92 4600 c0 -14 2 -19 5 -12 2 6 2 18 0 25 -3 6 -5 1 -5 -13z
M10692 4595 c0 -16 2 -22 5 -12 2 9 2 23 0 30 -3 6 -5 -1 -5 -18z M10682 4530
c0 -14 2 -19 5 -12 2 6 2 18 0 25 -3 6 -5 1 -5 -13z M112 4480 c0 -14 2 -19 5
-12 2 6 2 18 0 25 -3 6 -5 1 -5 -13z M10426 3555 c-9 -26 -7 -32 5 -12 6 10 9
21 6 23 -2 3 -7 -2 -11 -11z M10406 3505 c-9 -26 -7 -32 5 -12 6 10 9 21 6 23
-2 3 -7 -2 -11 -11z M390 3465 c0 -5 5 -17 10 -25 5 -8 10 -10 10 -5 0 6 -5
17 -10 25 -5 8 -10 11 -10 5z M10356 3375 c-9 -26 -7 -32 5 -12 6 10 9 21 6
23 -2 3 -7 -2 -11 -11z M430 3365 c0 -5 5 -17 10 -25 5 -8 10 -10 10 -5 0 6
-5 17 -10 25 -5 8 -10 11 -10 5z M10332 3315 c-17 -37 -14 -45 4 -12 9 16 14
31 11 33 -2 2 -9 -7 -15 -21z M450 3315 c0 -5 5 -17 10 -25 5 -8 10 -10 10 -5
0 6 -5 17 -10 25 -5 8 -10 11 -10 5z M10306 3255 c-9 -26 -7 -32 5 -12 6 10 9
21 6 23 -2 3 -7 -2 -11 -11z M490 3225 c0 -5 5 -17 10 -25 5 -8 10 -10 10 -5
0 6 -5 17 -10 25 -5 8 -10 11 -10 5z M10276 3185 c-9 -26 -7 -32 5 -12 6 10 9
21 6 23 -2 3 -7 -2 -11 -11z M521 3155 c0 -5 13 -35 29 -65 16 -30 29 -50 29
-45 0 6 -13 35 -29 65 -16 30 -29 51 -29 45z M10191 3003 c-10 -26 -10 -27 4
-9 8 11 15 23 15 28 0 15 -7 8 -19 -19z M635 2920 c25 -49 47 -90 50 -90 3 0
-15 41 -40 90 -25 50 -47 90 -50 90 -3 0 15 -40 40 -90z M10100 2830 c-6 -11
-8 -20 -6 -20 3 0 10 9 16 20 6 11 8 20 6 20 -3 0 -10 -9 -16 -20z M700 2800
c6 -11 13 -20 16 -20 2 0 0 9 -6 20 -6 11 -13 20 -16 20 -2 0 0 -9 6 -20z
M750 2710 c6 -11 13 -20 16 -20 2 0 0 9 -6 20 -6 11 -13 20 -16 20 -2 0 0 -9
6 -20z M810 2610 c6 -11 13 -20 16 -20 2 0 0 9 -6 20 -6 11 -13 20 -16 20 -2
0 0 -9 6 -20z M840 2560 c6 -11 13 -20 16 -20 2 0 0 9 -6 20 -6 11 -13 20 -16
20 -2 0 0 -9 6 -20z M9444 1878 l-19 -23 23 19 c12 11 22 21 22 23 0 8 -8 2
-26 -19z M1380 1837 c0 -2 15 -16 33 -33 l32 -29 -29 33 c-28 30 -36 37 -36
29z M9354 1778 l-29 -33 33 29 c17 17 32 31 32 33 0 8 -8 1 -36 -29z M1545
1660 c44 -44 82 -80 85 -80 2 0 -31 36 -75 80 -44 44 -82 80 -85 80 -2 0 31
-36 75 -80z M9170 1583 l-85 -88 88 85 c48 46 87 86 87 87 0 8 -11 -3 -90 -84z
M1695 1510 c27 -27 51 -50 54 -50 3 0 -17 23 -44 50 -27 28 -51 50 -54 50 -3
0 17 -22 44 -50z M8969 1393 l-24 -28 28 24 c15 14 27 26 27 28 0 8 -8 1 -31
-24z M1835 1380 c10 -11 20 -20 23 -20 3 0 -3 9 -13 20 -10 11 -20 20 -23 20
-3 0 3 -9 13 -20z M8894 1328 l-19 -23 23 19 c12 11 22 21 22 23 0 8 -8 2 -26
-19z M1925 1300 c10 -11 20 -20 23 -20 3 0 -3 9 -13 20 -10 11 -20 20 -23 20
-3 0 3 -9 13 -20z M2870 656 c0 -3 9 -10 20 -16 11 -6 20 -8 20 -6 0 3 -9 10
-20 16 -11 6 -20 8 -20 6z M7700 540 c-19 -11 -31 -19 -27 -20 11 0 67 29 67
35 0 7 -1 7 -40 -15z M3200 485 c14 -8 30 -14 35 -14 6 0 -1 6 -15 14 -14 8
-29 14 -35 14 -5 0 1 -6 15 -14z M7550 470 c-19 -11 -30 -19 -25 -19 6 0 26 8
45 19 19 11 31 19 25 19 -5 0 -26 -8 -45 -19z M3280 450 c8 -5 20 -10 25 -10
6 0 3 5 -5 10 -8 5 -19 10 -25 10 -5 0 -3 -5 5 -10z M7480 440 c-8 -5 -10 -10
-5 -10 6 0 17 5 25 10 8 5 11 10 5 10 -5 0 -17 -5 -25 -10z M3350 420 c8 -5
20 -10 25 -10 6 0 3 5 -5 10 -8 5 -19 10 -25 10 -5 0 -3 -5 5 -10z M7360 390
c-8 -5 -10 -10 -5 -10 6 0 17 5 25 10 8 5 11 10 5 10 -5 0 -17 -5 -25 -10z
M3550 340 c8 -5 20 -10 25 -10 6 0 3 5 -5 10 -8 5 -19 10 -25 10 -5 0 -3 -5 5
-10z M7150 310 c-8 -5 -10 -10 -5 -10 6 0 17 5 25 10 8 5 11 10 5 10 -5 0 -17
-5 -25 -10z M3685 290 c27 -12 43 -12 25 0 -8 5 -22 9 -30 9 -10 0 -8 -3 5 -9z
M3775 260 c11 -5 27 -9 35 -9 9 0 8 4 -5 9 -11 5 -27 9 -35 9 -9 0 -8 -4 5 -9z
M6995 260 c-13 -5 -14 -9 -5 -9 8 0 24 4 35 9 13 5 14 9 5 9 -8 0 -24 -4 -35
-9z M4288 123 c6 -2 18 -2 25 0 6 3 1 5 -13 5 -14 0 -19 -2 -12 -5z M6448 113
c6 -2 18 -2 25 0 6 3 1 5 -13 5 -14 0 -19 -2 -12 -5z M4388 103 c6 -2 18 -2
25 0 6 3 1 5 -13 5 -14 0 -19 -2 -12 -5z M6398 103 c6 -2 18 -2 25 0 6 3 1 5
-13 5 -14 0 -19 -2 -12 -5z M4438 93 c6 -2 18 -2 25 0 6 3 1 5 -13 5 -14 0
-19 -2 -12 -5z M4498 83 c6 -2 18 -2 25 0 6 3 1 5 -13 5 -14 0 -19 -2 -12 -5z
M6288 83 c6 -2 18 -2 25 0 6 3 1 5 -13 5 -14 0 -19 -2 -12 -5z M4548 73 c6 -2
18 -2 25 0 6 3 1 5 -13 5 -14 0 -19 -2 -12 -5z M6228 73 c6 -2 18 -2 25 0 6 3
1 5 -13 5 -14 0 -19 -2 -12 -5z M4618 63 c6 -2 18 -2 25 0 6 3 1 5 -13 5 -14
0 -19 -2 -12 -5z M6168 63 c6 -2 18 -2 25 0 6 3 1 5 -13 5 -14 0 -19 -2 -12
-5z M4693 53 c9 -2 23 -2 30 0 6 3 -1 5 -18 5 -16 0 -22 -2 -12 -5z M6093 53
c9 -2 23 -2 30 0 6 3 -1 5 -18 5 -16 0 -22 -2 -12 -5z M4763 43 c9 -2 25 -2
35 0 9 3 1 5 -18 5 -19 0 -27 -2 -17 -5z M6008 43 c12 -2 30 -2 40 0 9 3 -1 5
-23 4 -22 0 -30 -2 -17 -4z M4848 33 c12 -2 30 -2 40 0 9 3 -1 5 -23 4 -22 0
-30 -2 -17 -4z M5918 33 c12 -2 30 -2 40 0 9 3 -1 5 -23 4 -22 0 -30 -2 -17
-4z M4948 23 c12 -2 32 -2 45 0 12 2 2 4 -23 4 -25 0 -35 -2 -22 -4z M5818 23
c12 -2 30 -2 40 0 9 3 -1 5 -23 4 -22 0 -30 -2 -17 -4z M5098 13 c23 -2 59 -2
80 0 20 2 1 4 -43 4 -44 0 -61 -2 -37 -4z M5643 13 c20 -2 54 -2 75 0 20 2 3
4 -38 4 -41 0 -58 -2 -37 -4z M5373 3 c9 -2 25 -2 35 0 9 3 1 5 -18 5 -19 0
-27 -2 -17 -5z"/>
</g>
</svg>
